<svg width="1080" height="1920" viewBox="0 0 1080 1920" fill="none" xmlns="http://www.w3.org/2000/svg">
<rect width="1080" height="1920" fill="#C2D8D8"/>
<ellipse cx="409.188" cy="1140.67" rx="111.419" ry="108.61" fill="#F96464"/>
<ellipse cx="538.396" cy="1174.38" rx="111.419" ry="108.61" fill="#F96464"/>
<circle cx="297.769" cy="1048.91" r="112.355" fill="#F96464"/>
<circle cx="408.251" cy="599.49" r="112.355" fill="#F96464"/>
<circle cx="230.355" cy="919.703" r="112.355" fill="#F96464"/>
<circle cx="260.317" cy="792.367" r="112.355" fill="#F96464"/>
<ellipse cx="408.251" cy="886.932" rx="189.131" ry="287.442" fill="#F96464"/>
<circle cx="297.769" cy="680.011" r="112.355" fill="#F96464"/>
<circle cx="537.906" cy="572.162" r="112.355" fill="#F96464"/>
<rect x="342.711" y="567.656" width="307.105" height="617.954" fill="#F96464"/>
<path d="M207.99 698.288C220.117 690.976 233.651 686.385 247.676 684.819C261.7 683.253 275.895 684.748 289.303 689.205C302.71 693.662 315.022 700.98 325.401 710.669C335.782 720.359 343.987 732.195 349.456 745.382" stroke="#DC5858" stroke-width="24" stroke-linecap="round"/>
<path d="M572.019 802.636C587.897 808.243 602.104 817.868 613.279 830.605C624.455 843.343 632.225 858.769 635.838 875.419" stroke="#DC5858" stroke-width="24" stroke-linecap="round"/>
<path d="M450.452 1222.46C447.051 1204.85 448.387 1186.63 454.317 1169.73C460.245 1152.83 470.542 1137.88 484.102 1126.45C497.661 1115.02 513.985 1107.53 531.353 1104.73C548.72 1101.93 566.512 1103.94 582.863 1110.54" stroke="#DC5858" stroke-width="24" stroke-linecap="round"/>
<path d="M418.999 1039.01C437.335 1041.33 454.667 1048.81 469.012 1060.62C483.359 1072.43 494.141 1088.09 500.111 1105.82" stroke="#DC5858" stroke-width="24" stroke-linecap="round"/>
<path d="M325.038 950.367C322.302 963.106 317.097 975.175 309.723 985.887C302.349 996.598 292.95 1005.74 282.066 1012.8C271.183 1019.85 259.026 1024.68 246.291 1027.01C233.556 1029.34 220.489 1029.13 207.835 1026.38" stroke="#DC5858" stroke-width="24" stroke-linecap="round"/>
<path d="M591.444 642.08C573.879 650.36 554.286 653.19 535.138 650.219C515.989 647.248 498.128 638.607 483.816 625.37C469.504 612.131 459.385 594.888 454.757 575.814C450.13 556.739 451.208 536.706 457.851 518.253" stroke="#DC5858" stroke-width="24" stroke-linecap="round"/>
<path d="M484.49 637.137C473.231 650.641 458.618 660.851 442.169 666.725C425.72 672.6 408.022 673.931 390.898 670.584" stroke="#DC5858" stroke-width="24" stroke-linecap="round"/>
<path d="M529.787 738.932C529.787 750.337 520.677 759.427 509.63 759.427C498.583 759.427 489.472 750.337 489.472 738.932C489.472 727.527 498.583 718.437 509.63 718.437C520.677 718.437 529.787 727.527 529.787 738.932Z" stroke="black" stroke-width="15"/>
<path d="M371.587 828.542C371.587 839.947 362.476 849.037 351.429 849.037C340.382 849.037 331.272 839.947 331.272 828.542C331.272 817.137 340.382 808.047 351.429 808.047C362.476 808.047 371.587 817.137 371.587 828.542Z" stroke="black" stroke-width="15"/>
<circle cx="581.539" cy="559.374" r="20.1575" stroke="black" stroke-width="15"/>
<path d="M246.575 912.563C246.575 923.921 237.479 933 226.417 933C215.356 933 206.26 923.921 206.26 912.563C206.26 901.205 215.356 892.126 226.417 892.126C237.479 892.126 246.575 901.205 246.575 912.563Z" stroke="black" stroke-width="15"/>
<path d="M585.102 1200.2C585.102 1211.56 576.007 1220.64 564.945 1220.64C553.883 1220.64 544.787 1211.56 544.787 1200.2C544.787 1188.84 553.883 1179.76 564.945 1179.76C576.007 1179.76 585.102 1188.84 585.102 1200.2Z" stroke="black" stroke-width="15"/>
<path d="M381.543 1092.89C381.543 1104.25 372.448 1113.33 361.386 1113.33C350.324 1113.33 341.228 1104.25 341.228 1092.89C341.228 1081.53 350.324 1072.45 361.386 1072.45C372.448 1072.45 381.543 1081.53 381.543 1092.89Z" stroke="black" stroke-width="15"/>
<path d="M601.453 558.821H737.528" stroke="black" stroke-width="15" stroke-linecap="round"/>
<path d="M530.65 739.701H605.479C612.11 739.701 618.469 737.067 623.157 732.378L672.678 682.858C677.366 678.169 683.725 675.535 690.355 675.535H890.197" stroke="black" stroke-width="15" stroke-linecap="round"/>
<path d="M379.087 828.758H671.304C677.935 828.758 684.293 826.124 688.982 821.436L725.227 785.19C729.915 780.502 736.274 777.868 742.905 777.868H825.08C831.71 777.868 838.069 780.502 842.757 785.19L916.748 859.181" stroke="black" stroke-width="15" stroke-linecap="round"/>
<path d="M253.522 914.496H450.044C456.675 914.496 463.033 917.13 467.722 921.818L536.05 990.146C540.738 994.835 547.097 997.469 553.727 997.469H649.178C655.808 997.469 662.167 994.835 666.856 990.146L729.783 927.219" stroke="black" stroke-width="15" stroke-linecap="round"/>
<path d="M387.937 1095.38H703.94C710.57 1095.38 716.929 1092.74 721.618 1088.05L766.16 1043.51C770.848 1038.82 777.207 1036.19 783.838 1036.19H830.457" stroke="black" stroke-width="15" stroke-linecap="round"/>
<path d="M589.837 1201.58H677.942C684.572 1201.58 690.931 1198.95 695.62 1194.26L716.377 1173.5C721.065 1168.81 727.424 1166.18 734.054 1166.18H783.992" stroke="black" stroke-width="15" stroke-linecap="round"/>
<circle cx="890.197" cy="672.217" r="38.7205" fill="#47DAFA"/>
<path d="M791.015 559.927C791.015 582.839 772.441 601.413 749.528 601.413C726.616 601.413 708.042 582.839 708.042 559.927C708.042 537.015 726.616 518.441 749.528 518.441C772.441 518.441 791.015 537.015 791.015 559.927Z" fill="#47DAFA"/>
<circle cx="744.165" cy="913.39" r="33.189" fill="#47DAFA"/>
<circle cx="839.307" cy="1038.4" r="27.6575" fill="#47DAFA"/>
<circle cx="916.748" cy="859.181" r="44.252" fill="#47DAFA"/>
<circle cx="795.055" cy="1166.73" r="44.252" fill="#47DAFA"/>
<path d="M505.005 1674.78C516.919 1688.31 552.292 1711.23 598.469 1694.68C633.734 1682.04 665.728 1650.03 681.674 1628.41C688.342 1619.37 685.269 1607.39 675.009 1602.82C656.094 1594.38 626.205 1587.42 590.025 1596.91C531.063 1612.38 508.227 1648.2 505.005 1674.78Z" fill="#319641"/>
<path d="M475.87 1706.22L505.005 1674.78M505.005 1674.78C516.919 1688.31 552.292 1711.23 598.469 1694.68C633.734 1682.04 665.728 1650.03 681.674 1628.41C688.342 1619.37 685.269 1607.39 675.009 1602.82C656.094 1594.38 626.205 1587.42 590.025 1596.91C531.063 1612.38 508.227 1648.2 505.005 1674.78Z" stroke="#2C893A" stroke-width="15" stroke-linecap="round"/>
<path d="M512.183 1672.73C557.98 1643.89 636.175 1618.55 682.265 1614.43" stroke="#2A8939" stroke-width="15" stroke-linecap="round"/>
<path d="M90.8494 1656V1510.55H175.224V1522.48H104.131V1577.24H170.75V1589.17H104.131V1644.07H176.645V1656H90.8494ZM379.77 1556H366.418C365.423 1551.03 363.624 1546.44 361.02 1542.22C358.463 1537.96 355.243 1534.24 351.361 1531.07C347.478 1527.9 343.075 1525.44 338.151 1523.68C333.226 1521.93 327.9 1521.06 322.17 1521.06C312.985 1521.06 304.604 1523.45 297.028 1528.23C289.5 1533.01 283.463 1540.04 278.918 1549.32C274.42 1558.56 272.17 1569.87 272.17 1583.27C272.17 1596.77 274.42 1608.13 278.918 1617.36C283.463 1626.6 289.5 1633.6 297.028 1638.39C304.604 1643.12 312.985 1645.49 322.17 1645.49C327.9 1645.49 333.226 1644.61 338.151 1642.86C343.075 1641.11 347.478 1638.67 351.361 1635.55C355.243 1632.37 358.463 1628.66 361.02 1624.39C363.624 1620.13 365.423 1615.52 366.418 1610.55H379.77C378.586 1617.22 376.361 1623.45 373.094 1629.22C369.874 1634.95 365.755 1639.97 360.736 1644.28C355.764 1648.59 350.035 1651.95 343.548 1654.37C337.062 1656.78 329.936 1657.99 322.17 1657.99C309.955 1657.99 299.112 1654.93 289.642 1648.83C280.172 1642.67 272.739 1634.01 267.341 1622.83C261.991 1611.66 259.315 1598.47 259.315 1583.27C259.315 1568.07 261.991 1554.89 267.341 1543.71C272.739 1532.54 280.172 1523.9 289.642 1517.79C299.112 1511.63 309.955 1508.56 322.17 1508.56C329.936 1508.56 337.062 1509.76 343.548 1512.18C350.035 1514.55 355.764 1517.91 360.736 1522.26C365.755 1526.57 369.874 1531.59 373.094 1537.32C376.361 1543.05 378.586 1549.28 379.77 1556ZM586.464 1583.27C586.464 1598.42 583.765 1611.61 578.367 1622.83C572.969 1634.01 565.536 1642.67 556.066 1648.83C546.644 1654.93 535.801 1657.99 523.538 1657.99C511.274 1657.99 500.408 1654.93 490.938 1648.83C481.516 1642.67 474.106 1634.01 468.708 1622.83C463.358 1611.61 460.683 1598.42 460.683 1583.27C460.683 1568.12 463.358 1554.96 468.708 1543.78C474.106 1532.56 481.54 1523.9 491.009 1517.79C500.479 1511.63 511.322 1508.56 523.538 1508.56C535.801 1508.56 546.644 1511.63 556.066 1517.79C565.536 1523.9 572.969 1532.56 578.367 1543.78C583.765 1554.96 586.464 1568.12 586.464 1583.27ZM573.538 1583.27C573.538 1570.25 571.36 1559.1 567.004 1549.82C562.647 1540.49 556.705 1533.37 549.177 1528.44C541.648 1523.52 533.102 1521.06 523.538 1521.06C514.021 1521.06 505.498 1523.52 497.969 1528.44C490.441 1533.37 484.475 1540.47 480.072 1549.75C475.716 1559.03 473.538 1570.2 473.538 1583.27C473.538 1596.29 475.716 1607.44 480.072 1616.72C484.428 1626 490.37 1633.13 497.898 1638.1C505.427 1643.03 513.973 1645.49 523.538 1645.49C533.102 1645.49 541.648 1643.03 549.177 1638.1C556.753 1633.18 562.719 1626.08 567.075 1616.8C571.431 1607.47 573.585 1596.29 573.538 1583.27ZM787.547 1656H773.626L826.538 1510.55H840.743L893.655 1656H879.734L834.138 1527.8H833.143L787.547 1656ZM797.561 1600.25H869.72V1612.18H797.561V1600.25ZM988.115 1510.55V1656H974.834V1510.55H988.115Z" fill="white"/>
<path d="M90.8494 1656H89.8494V1657H90.8494V1656ZM90.8494 1510.55V1509.55H89.8494V1510.55H90.8494ZM175.224 1510.55H176.224V1509.55H175.224V1510.55ZM175.224 1522.48V1523.48H176.224V1522.48H175.224ZM104.131 1522.48V1521.48H103.131V1522.48H104.131ZM104.131 1577.24H103.131V1578.24H104.131V1577.24ZM170.75 1577.24H171.75V1576.24H170.75V1577.24ZM170.75 1589.17V1590.17H171.75V1589.17H170.75ZM104.131 1589.17V1588.17H103.131V1589.17H104.131ZM104.131 1644.07H103.131V1645.07H104.131V1644.07ZM176.645 1644.07H177.645V1643.07H176.645V1644.07ZM176.645 1656V1657H177.645V1656H176.645ZM91.8494 1656V1510.55H89.8494V1656H91.8494ZM90.8494 1511.55H175.224V1509.55H90.8494V1511.55ZM174.224 1510.55V1522.48H176.224V1510.55H174.224ZM175.224 1521.48H104.131V1523.48H175.224V1521.48ZM103.131 1522.48V1577.24H105.131V1522.48H103.131ZM104.131 1578.24H170.75V1576.24H104.131V1578.24ZM169.75 1577.24V1589.17H171.75V1577.24H169.75ZM170.75 1588.17H104.131V1590.17H170.75V1588.17ZM103.131 1589.17V1644.07H105.131V1589.17H103.131ZM104.131 1645.07H176.645V1643.07H104.131V1645.07ZM175.645 1644.07V1656H177.645V1644.07H175.645ZM176.645 1655H90.8494V1657H176.645V1655ZM379.77 1556V1557H380.961L380.755 1555.83L379.77 1556ZM366.418 1556L365.437 1556.2L365.598 1557H366.418V1556ZM361.02 1542.22L360.162 1542.74L360.169 1542.75L361.02 1542.22ZM351.361 1531.07L350.728 1531.85L350.728 1531.85L351.361 1531.07ZM338.151 1523.68L338.486 1522.74L338.486 1522.74L338.151 1523.68ZM297.028 1528.23L296.495 1527.38L296.492 1527.39L297.028 1528.23ZM278.918 1549.32L278.02 1548.88L278.019 1548.89L278.918 1549.32ZM278.918 1617.36L278.019 1617.8L278.02 1617.81L278.918 1617.36ZM297.028 1638.39L296.492 1639.23L296.498 1639.23L297.028 1638.39ZM338.151 1642.86L337.815 1641.92L337.815 1641.92L338.151 1642.86ZM351.361 1635.55L351.988 1636.32L351.994 1636.32L351.361 1635.55ZM361.02 1624.39L360.167 1623.87L360.162 1623.88L361.02 1624.39ZM366.418 1610.55V1609.55H365.598L365.437 1610.35L366.418 1610.55ZM379.77 1610.55L380.755 1610.72L380.963 1609.55H379.77V1610.55ZM373.094 1629.22L372.223 1628.73L372.222 1628.73L373.094 1629.22ZM360.736 1644.28L360.084 1643.52L360.081 1643.53L360.736 1644.28ZM343.548 1654.37L343.199 1653.43L343.199 1653.43L343.548 1654.37ZM289.642 1648.83L289.097 1649.67L289.1 1649.67L289.642 1648.83ZM267.341 1622.83L266.439 1623.26L266.44 1623.27L267.341 1622.83ZM267.341 1543.71L266.44 1543.28L266.439 1543.28L267.341 1543.71ZM289.642 1517.79L290.184 1518.63L290.187 1518.63L289.642 1517.79ZM343.548 1512.18L343.199 1513.12L343.205 1513.12L343.548 1512.18ZM360.736 1522.26L360.077 1523.02L360.084 1523.02L360.736 1522.26ZM373.094 1537.32L372.222 1537.81L372.225 1537.82L373.094 1537.32ZM379.77 1555H366.418V1557H379.77V1555ZM367.398 1555.8C366.381 1550.72 364.539 1546.01 361.871 1541.7L360.169 1542.75C362.709 1546.86 364.466 1551.34 365.437 1556.2L367.398 1555.8ZM361.877 1541.71C359.261 1537.35 355.965 1533.54 351.994 1530.3L350.728 1531.85C354.522 1534.95 357.665 1538.57 360.162 1542.74L361.877 1541.71ZM351.994 1530.3C348.018 1527.05 343.513 1524.53 338.486 1522.74L337.815 1524.63C342.636 1526.34 346.938 1528.75 350.728 1531.85L351.994 1530.3ZM338.486 1522.74C333.444 1520.95 328.003 1520.06 322.17 1520.06V1522.06C327.796 1522.06 333.009 1522.92 337.815 1524.63L338.486 1522.74ZM322.17 1520.06C312.801 1520.06 304.234 1522.5 296.495 1527.38L297.562 1529.08C304.974 1524.4 313.169 1522.06 322.17 1522.06V1520.06ZM296.492 1527.39C288.785 1532.28 282.633 1539.46 278.02 1548.88L279.816 1549.76C284.293 1540.62 290.215 1533.74 297.565 1529.07L296.492 1527.39ZM278.019 1548.89C273.437 1558.29 271.17 1569.77 271.17 1583.27H273.17C273.17 1569.98 275.402 1558.82 279.817 1549.76L278.019 1548.89ZM271.17 1583.27C271.17 1596.87 273.437 1608.4 278.019 1617.8L279.817 1616.93C275.402 1607.87 273.17 1596.66 273.17 1583.27H271.17ZM278.02 1617.81C282.634 1627.18 288.786 1634.34 296.492 1639.23L297.565 1637.54C290.214 1632.87 284.292 1626.02 279.815 1616.92L278.02 1617.81ZM296.498 1639.23C304.238 1644.07 312.803 1646.49 322.17 1646.49V1644.49C313.167 1644.49 304.971 1642.17 297.558 1637.54L296.498 1639.23ZM322.17 1646.49C328.003 1646.49 333.444 1645.6 338.486 1643.8L337.815 1641.92C333.009 1643.63 327.796 1644.49 322.17 1644.49V1646.49ZM338.486 1643.8C343.511 1642.02 348.014 1639.52 351.988 1636.32L350.734 1634.77C346.943 1637.82 342.639 1640.2 337.815 1641.92L338.486 1643.8ZM351.994 1636.32C355.965 1633.08 359.261 1629.27 361.877 1624.91L360.162 1623.88C357.665 1628.04 354.522 1631.67 350.728 1634.77L351.994 1636.32ZM361.873 1624.92C364.539 1620.55 366.381 1615.83 367.398 1610.74L365.437 1610.35C364.465 1615.21 362.709 1619.71 360.167 1623.87L361.873 1624.92ZM366.418 1611.55H379.77V1609.55H366.418V1611.55ZM378.785 1610.37C377.621 1616.94 375.433 1623.06 372.223 1628.73L373.964 1629.72C377.288 1623.84 379.551 1617.51 380.755 1610.72L378.785 1610.37ZM372.222 1628.73C369.06 1634.36 365.015 1639.29 360.084 1643.52L361.387 1645.04C366.494 1640.66 370.688 1635.55 373.966 1629.71L372.222 1628.73ZM360.081 1643.53C355.204 1647.75 349.58 1651.05 343.199 1653.43L343.897 1655.3C350.49 1652.85 356.324 1649.43 361.391 1645.04L360.081 1643.53ZM343.199 1653.43C336.837 1655.8 329.831 1656.99 322.17 1656.99V1658.99C330.04 1658.99 337.286 1657.76 343.897 1655.3L343.199 1653.43ZM322.17 1656.99C310.13 1656.99 299.479 1653.98 290.184 1647.99L289.1 1649.67C298.745 1655.89 309.779 1658.99 322.17 1658.99V1656.99ZM290.187 1647.99C280.885 1641.94 273.568 1633.42 268.241 1622.4L266.44 1623.27C271.91 1634.59 279.459 1643.4 289.097 1649.67L290.187 1647.99ZM268.243 1622.4C262.97 1611.39 260.315 1598.36 260.315 1583.27H258.315C258.315 1598.59 261.011 1611.93 266.439 1623.26L268.243 1622.4ZM260.315 1583.27C260.315 1568.19 262.97 1555.16 268.243 1544.14L266.439 1543.28C261.011 1554.62 258.315 1567.96 258.315 1583.27H260.315ZM268.241 1544.15C273.567 1533.12 280.884 1524.63 290.184 1518.63L289.1 1516.95C279.46 1523.17 271.91 1531.96 266.44 1543.28L268.241 1544.15ZM290.187 1518.63C299.481 1512.59 310.132 1509.56 322.17 1509.56V1507.56C309.778 1507.56 298.742 1510.68 289.097 1516.95L290.187 1518.63ZM322.17 1509.56C329.831 1509.56 336.837 1510.75 343.199 1513.12L343.897 1511.24C337.286 1508.78 330.04 1507.56 322.17 1507.56V1509.56ZM343.205 1513.12C349.581 1515.45 355.202 1518.75 360.077 1523.02L361.395 1521.51C356.326 1517.07 350.489 1513.65 343.891 1511.24L343.205 1513.12ZM360.084 1523.02C365.015 1527.26 369.06 1532.18 372.222 1537.81L373.966 1536.83C370.688 1531 366.494 1525.89 361.387 1521.51L360.084 1523.02ZM372.225 1537.82C375.433 1543.44 377.621 1549.56 378.785 1556.17L380.755 1555.83C379.552 1548.99 377.288 1542.66 373.962 1536.83L372.225 1537.82ZM578.367 1622.83L579.268 1623.27L579.268 1623.27L578.367 1622.83ZM556.066 1648.83L556.61 1649.67L556.611 1649.67L556.066 1648.83ZM490.938 1648.83L490.391 1649.66L490.396 1649.67L490.938 1648.83ZM468.708 1622.83L467.805 1623.26L467.808 1623.27L468.708 1622.83ZM468.708 1543.78L467.807 1543.35L467.806 1543.35L468.708 1543.78ZM491.009 1517.79L491.551 1518.63L491.554 1518.63L491.009 1517.79ZM556.066 1517.79L555.519 1518.63L555.524 1518.63L556.066 1517.79ZM578.367 1543.78L577.466 1544.22L577.467 1544.22L578.367 1543.78ZM573.538 1583.27H572.538L572.538 1583.28L573.538 1583.27ZM567.004 1549.82L566.097 1550.24L566.098 1550.25L567.004 1549.82ZM549.177 1528.44L548.629 1529.28L549.177 1528.44ZM497.969 1528.44L498.517 1529.28L498.517 1529.28L497.969 1528.44ZM480.072 1549.75L479.168 1549.32L479.166 1549.33L480.072 1549.75ZM480.072 1616.72L479.166 1617.15L479.166 1617.15L480.072 1616.72ZM497.898 1638.1L497.347 1638.94L497.351 1638.94L497.898 1638.1ZM549.177 1638.1L548.632 1637.26L548.629 1637.27L549.177 1638.1ZM567.075 1616.8L567.98 1617.22L567.981 1617.22L567.075 1616.8ZM585.464 1583.27C585.464 1598.31 582.786 1611.34 577.466 1622.4L579.268 1623.27C584.744 1611.88 587.464 1598.54 587.464 1583.27H585.464ZM577.467 1622.4C572.14 1633.42 564.823 1641.94 555.521 1647.99L556.611 1649.67C566.249 1643.4 573.799 1634.59 579.268 1623.27L577.467 1622.4ZM555.522 1647.99C546.277 1653.98 535.626 1656.99 523.538 1656.99V1658.99C535.975 1658.99 547.011 1655.89 556.61 1649.67L555.522 1647.99ZM523.538 1656.99C511.449 1656.99 500.774 1653.98 491.48 1647.99L490.396 1649.67C500.042 1655.89 511.1 1658.99 523.538 1658.99V1656.99ZM491.485 1647.99C482.23 1641.94 474.936 1633.43 469.609 1622.4L467.808 1623.27C473.276 1634.59 480.801 1643.4 490.391 1649.66L491.485 1647.99ZM469.611 1622.4C464.337 1611.34 461.683 1598.31 461.683 1583.27H459.683C459.683 1598.54 462.379 1611.88 467.805 1623.26L469.611 1622.4ZM461.683 1583.27C461.683 1568.24 464.337 1555.23 469.61 1544.22L467.806 1543.35C462.378 1554.69 459.683 1568 459.683 1583.27H461.683ZM469.609 1544.22C474.936 1533.14 482.252 1524.63 491.551 1518.63L490.467 1516.95C480.827 1523.17 473.276 1531.98 467.807 1543.35L469.609 1544.22ZM491.554 1518.63C500.848 1512.59 511.499 1509.56 523.538 1509.56V1507.56C511.145 1507.56 500.109 1510.68 490.464 1516.95L491.554 1518.63ZM523.538 1509.56C535.625 1509.56 546.274 1512.59 555.519 1518.63L556.613 1516.95C547.013 1510.68 535.977 1507.56 523.538 1507.56V1509.56ZM555.524 1518.63C564.823 1524.63 572.14 1533.14 577.466 1544.22L579.268 1543.35C573.799 1531.98 566.249 1523.17 556.608 1516.95L555.524 1518.63ZM577.467 1544.22C582.786 1555.23 585.464 1568.24 585.464 1583.27H587.464C587.464 1568 584.744 1554.69 579.268 1543.35L577.467 1544.22ZM574.538 1583.27C574.538 1570.14 572.342 1558.84 567.909 1549.4L566.098 1550.25C570.377 1559.36 572.538 1570.36 572.538 1583.27H574.538ZM567.91 1549.4C563.486 1539.93 557.43 1532.65 549.724 1527.61L548.629 1529.28C555.981 1534.09 561.809 1541.06 566.097 1550.24L567.91 1549.4ZM549.724 1527.61C542.023 1522.57 533.284 1520.06 523.538 1520.06V1522.06C532.92 1522.06 541.274 1524.47 548.629 1529.28L549.724 1527.61ZM523.538 1520.06C513.838 1520.06 505.123 1522.57 497.422 1527.61L498.517 1529.28C505.873 1524.47 514.203 1522.06 523.538 1522.06V1520.06ZM497.422 1527.61C489.719 1532.64 483.639 1539.9 479.168 1549.32L480.975 1550.18C485.311 1541.04 491.163 1534.09 498.517 1529.28L497.422 1527.61ZM479.166 1549.33C474.733 1558.77 472.538 1570.1 472.538 1583.27H474.538C474.538 1570.31 476.698 1559.29 480.977 1550.17L479.166 1549.33ZM472.538 1583.27C472.538 1596.4 474.734 1607.71 479.166 1617.15L480.977 1616.3C476.698 1607.18 474.538 1596.19 474.538 1583.27H472.538ZM479.166 1617.15C483.59 1626.57 489.645 1633.85 497.347 1638.94L498.449 1637.27C491.095 1632.41 485.266 1625.44 480.977 1616.3L479.166 1617.15ZM497.351 1638.94C505.053 1643.98 513.792 1646.49 523.538 1646.49V1644.49C514.155 1644.49 505.801 1642.08 498.446 1637.27L497.351 1638.94ZM523.538 1646.49C533.284 1646.49 542.023 1643.98 549.724 1638.94L548.629 1637.27C541.274 1642.08 532.92 1644.49 523.538 1644.49V1646.49ZM549.722 1638.94C557.474 1633.9 563.555 1626.65 567.98 1617.22L566.169 1616.37C561.882 1625.51 556.031 1632.45 548.632 1637.26L549.722 1638.94ZM567.981 1617.22C572.413 1607.73 574.585 1596.4 574.538 1583.27L572.538 1583.28C572.585 1596.19 570.448 1607.21 566.169 1616.37L567.981 1617.22ZM787.547 1656V1657H788.253L788.489 1656.34L787.547 1656ZM773.626 1656L772.687 1655.66L772.199 1657H773.626V1656ZM826.538 1510.55V1509.55H825.838L825.599 1510.2L826.538 1510.55ZM840.743 1510.55L841.683 1510.2L841.443 1509.55H840.743V1510.55ZM893.655 1656V1657H895.083L894.595 1655.66L893.655 1656ZM879.734 1656L878.792 1656.34L879.029 1657H879.734V1656ZM834.138 1527.8L835.08 1527.47L834.843 1526.8H834.138V1527.8ZM833.143 1527.8V1526.8H832.438L832.201 1527.47L833.143 1527.8ZM797.561 1600.25V1599.25H796.561V1600.25H797.561ZM869.72 1600.25H870.72V1599.25H869.72V1600.25ZM869.72 1612.18V1613.18H870.72V1612.18H869.72ZM797.561 1612.18H796.561V1613.18H797.561V1612.18ZM787.547 1655H773.626V1657H787.547V1655ZM774.566 1656.34L827.478 1510.89L825.599 1510.2L772.687 1655.66L774.566 1656.34ZM826.538 1511.55H840.743V1509.55H826.538V1511.55ZM839.803 1510.89L892.715 1656.34L894.595 1655.66L841.683 1510.2L839.803 1510.89ZM893.655 1655H879.734V1657H893.655V1655ZM880.677 1655.66L835.08 1527.47L833.196 1528.14L878.792 1656.34L880.677 1655.66ZM834.138 1526.8H833.143V1528.8H834.138V1526.8ZM832.201 1527.47L786.605 1655.66L788.489 1656.34L834.086 1528.14L832.201 1527.47ZM797.561 1601.25H869.72V1599.25H797.561V1601.25ZM868.72 1600.25V1612.18H870.72V1600.25H868.72ZM869.72 1611.18H797.561V1613.18H869.72V1611.18ZM798.561 1612.18V1600.25H796.561V1612.18H798.561ZM988.115 1510.55H989.115V1509.55H988.115V1510.55ZM988.115 1656V1657H989.115V1656H988.115ZM974.834 1656H973.834V1657H974.834V1656ZM974.834 1510.55V1509.55H973.834V1510.55H974.834ZM987.115 1510.55V1656H989.115V1510.55H987.115ZM988.115 1655H974.834V1657H988.115V1655ZM975.834 1656V1510.55H973.834V1656H975.834ZM974.834 1511.55H988.115V1509.55H974.834V1511.55Z" fill="#EEEEEE"/>
</svg>
