<svg width="1080" height="1526" viewBox="0 0 1080 1526" fill="none" xmlns="http://www.w3.org/2000/svg">
<path d="M1080 1526H0V0H1080V1526ZM482.261 774.632L480.469 801.512H462.549V828.392H479.189V887.528C479.189 902.717 481.707 914.067 486.741 921.576C491.861 929.085 501.632 932.84 516.053 932.84C518.869 932.84 522.41 932.413 526.677 931.56C531.029 930.792 535.295 929.726 539.477 928.36C543.743 926.91 547.199 925.245 549.845 923.368L543.701 897.512C541.312 899.56 538.026 901.566 533.845 903.528C529.664 905.491 525.696 906.472 521.941 906.472C518.272 906.472 515.371 905.064 513.237 902.248C511.189 899.347 510.165 894.184 510.165 886.76V828.392H541.653V801.512H510.165V762.6L482.261 774.632ZM290.031 798.44C271.258 798.44 256.58 804.285 245.999 815.976C235.418 827.666 230.127 844.008 230.127 865C230.127 885.821 235.247 902.12 245.487 913.896C255.727 925.672 270.234 931.56 289.007 931.56C307.866 931.56 322.373 925.544 332.527 913.512C342.767 901.394 347.887 885.224 347.887 865C347.887 844.776 342.938 828.648 333.039 816.616C323.226 804.499 308.89 798.44 290.031 798.44ZM710.781 798.44C692.008 798.44 677.33 804.285 666.749 815.976C656.168 827.666 650.877 844.008 650.877 865C650.877 885.821 655.997 902.12 666.237 913.896C676.477 925.672 690.984 931.56 709.757 931.56C728.616 931.56 743.123 925.544 753.277 913.512C763.517 901.394 768.637 885.224 768.637 865C768.637 844.776 763.688 828.648 753.789 816.616C743.976 804.499 729.64 798.44 710.781 798.44ZM975.781 798.44C957.008 798.44 942.33 804.285 931.749 815.976C921.168 827.666 915.877 844.008 915.877 865C915.877 885.821 920.997 902.12 931.237 913.896C941.477 925.672 955.984 931.56 974.757 931.56C993.616 931.56 1008.12 925.544 1018.28 913.512C1028.52 901.394 1033.64 885.224 1033.64 865C1033.64 844.776 1028.69 828.648 1018.79 816.616C1008.98 804.499 994.64 798.44 975.781 798.44ZM102.679 929H135.703V881.128H151.575C166.679 881.128 178.967 877.886 188.439 871.4C197.997 864.915 204.993 856.509 209.431 846.184C213.868 835.773 216.087 824.723 216.087 813.032C216.087 796.904 213.143 784.318 207.255 775.272C201.367 766.142 193.474 759.742 183.575 756.072C173.677 752.403 162.668 750.568 150.551 750.568H102.679V929ZM441.391 799.976C433.369 799.976 426.799 801.299 421.679 803.944C416.644 806.504 412.677 809.662 409.775 813.416C406.959 817.171 404.868 820.712 403.503 824.04L401.967 801.512H373.039V929H405.039V852.2C405.039 850.408 406.021 847.848 407.983 844.52C410.031 841.192 413.146 838.205 417.327 835.56C421.508 832.829 426.885 831.464 433.455 831.464C439.087 831.464 443.268 832.829 445.999 835.56L453.167 802.024C451.546 801.342 449.796 800.83 447.919 800.488C446.042 800.147 443.865 799.976 441.391 799.976ZM625.185 730.344C620.235 730.344 615.073 731.155 609.697 732.776C604.407 734.312 599.457 737 594.849 740.84C590.241 744.68 586.486 749.928 583.585 756.584C580.769 763.24 579.361 771.645 579.361 781.8V801.512H562.209V828.392H579.361V929H610.337V828.392H641.313V801.512H610.337V781.032C610.337 773.011 612.343 767.165 616.354 763.496C620.364 759.742 625.356 757.864 631.329 757.864C634.06 757.864 637.217 758.462 640.801 759.656C644.385 760.766 647.116 762.558 648.993 765.032V735.976C646.945 734.781 644.214 733.544 640.801 732.264C637.473 730.984 632.267 730.344 625.185 730.344ZM794.331 929H825.563V734.44H794.331V929ZM856.825 929H890.105V801.512H856.825V929ZM289.519 823.784C305.732 823.784 313.839 837.523 313.839 865C313.839 892.307 305.732 905.96 289.519 905.96C281.498 905.96 275.268 902.803 270.831 896.488C266.394 890.174 264.175 879.677 264.175 865C264.175 850.237 266.394 839.698 270.831 833.384C275.268 826.984 281.498 823.784 289.519 823.784ZM710.269 823.784C726.482 823.784 734.589 837.523 734.589 865C734.589 892.307 726.482 905.96 710.269 905.96C702.248 905.96 696.018 902.803 691.581 896.488C687.144 890.174 684.925 879.677 684.925 865C684.925 850.237 687.144 839.698 691.581 833.384C696.018 826.984 702.248 823.784 710.269 823.784ZM975.269 823.784C991.482 823.784 999.589 837.523 999.589 865C999.589 892.307 991.482 905.96 975.269 905.96C967.248 905.96 961.018 902.803 956.581 896.488C952.144 890.174 949.925 879.677 949.925 865C949.925 850.237 952.144 839.698 956.581 833.384C961.018 826.984 967.248 823.784 975.269 823.784ZM148.503 776.424C161.303 776.424 170.263 779.582 175.383 785.896C180.503 792.126 183.063 801.768 183.063 814.824C183.063 827.624 180.247 837.394 174.615 844.136C168.983 850.877 160.535 854.248 149.271 854.248H135.703V776.424H148.503ZM855.545 780.776H891.385V746.729H855.545V780.776ZM695.193 574.816L694.297 588.256H685.337V601.696H693.657V631.264C693.657 638.858 694.915 644.533 697.433 648.288C699.993 652.043 704.878 653.92 712.089 653.92C713.497 653.92 715.268 653.707 717.401 653.28C719.577 652.896 721.71 652.362 723.801 651.68C725.934 650.954 727.663 650.122 728.985 649.184L725.913 636.256C724.719 637.28 723.076 638.282 720.985 639.264C718.895 640.245 716.91 640.736 715.033 640.736C713.199 640.736 711.747 640.032 710.681 638.624C709.657 637.173 709.146 634.592 709.146 630.88V601.696H724.889V588.256H709.146V568.8L695.193 574.816ZM426.484 652H440.564V639.328C441.546 643.168 443.486 646.539 446.388 649.44C449.332 652.342 453.108 653.792 457.716 653.792C462.409 653.792 466.676 652.555 470.516 650.08C474.398 647.605 477.471 643.872 479.732 638.88C482.036 633.845 483.188 627.509 483.188 619.872C483.188 608.907 481.162 600.629 477.108 595.04C473.055 589.408 467.06 586.592 459.124 586.592C456.692 586.592 454.175 587.04 451.572 587.936C448.97 588.832 446.644 590.218 444.596 592.096C442.59 593.973 441.247 596.363 440.564 599.264L441.844 588.256V554.72H426.484V652ZM584.619 586.72C579.371 586.72 574.592 587.467 570.283 588.96C566.017 590.411 562.603 592.01 560.043 593.76L565.163 606.048C566.656 604.384 568.981 602.997 572.139 601.888C575.339 600.736 578.603 600.16 581.931 600.16C586.496 600.16 589.525 601.205 591.019 603.296C592.555 605.387 593.323 608.011 593.323 611.168V614.112C586.027 614.112 580.054 614.795 575.403 616.16C570.753 617.525 567.147 619.275 564.587 621.408C562.027 623.541 560.235 625.781 559.211 628.128C558.23 630.475 557.739 632.629 557.739 634.592C557.739 638.09 558.357 641.291 559.595 644.192C560.875 647.094 562.796 649.419 565.355 651.168C567.958 652.917 571.222 653.792 575.147 653.792C583.254 653.792 589.526 650.165 593.963 642.912L595.115 652H608.811V610.144C608.811 605.408 608.107 601.291 606.699 597.792C605.291 594.251 602.838 591.52 599.339 589.6C595.84 587.68 590.934 586.72 584.619 586.72ZM523.197 586.72C516.797 586.72 511.379 588.277 506.941 591.392C502.547 594.506 499.197 598.667 496.893 603.872C494.631 609.035 493.501 614.709 493.501 620.896C493.501 626.783 494.504 632.224 496.509 637.216C498.514 642.165 501.715 646.154 506.109 649.184C510.504 652.17 516.285 653.664 523.453 653.664C529.725 653.664 534.696 652.96 538.365 651.552C542.077 650.101 544.787 648.8 546.493 647.648L541.373 635.488C539.922 637.152 537.682 638.582 534.653 639.776C531.624 640.928 528.786 641.504 526.141 641.504C520.978 641.504 517.096 640.074 514.493 637.216C511.933 634.357 510.525 630.411 510.269 625.376H548.669C548.754 624.395 548.819 623.222 548.861 621.856C548.904 620.491 548.925 619.36 548.925 618.464C548.925 608.352 547.027 600.544 543.229 595.04C539.432 589.493 532.754 586.72 523.197 586.72ZM622.585 630.368C622.585 637.579 624.1 643.253 627.129 647.392C630.201 651.488 634.959 653.536 641.401 653.536C646.052 653.536 649.721 652.534 652.409 650.528C655.14 648.523 657.294 646.261 658.873 643.744L659.193 652H673.657V588.256H657.657V628.96C657.657 632.459 656.633 635.317 654.585 637.536C652.58 639.755 650.062 640.864 647.033 640.864C643.961 640.864 641.785 639.755 640.505 637.536C639.225 635.317 638.585 632.459 638.585 628.96V588.256H622.585V630.368ZM818.335 630.368C818.335 637.579 819.85 643.253 822.879 647.392C825.951 651.488 830.709 653.536 837.151 653.536C841.802 653.536 845.471 652.534 848.159 650.528C850.89 648.523 853.044 646.261 854.623 643.744L854.943 652H869.407V588.256H853.407V628.96C853.407 632.459 852.383 635.317 850.335 637.536C848.33 639.755 845.812 640.864 842.783 640.864C839.711 640.864 837.535 639.755 836.255 637.536C834.975 635.317 834.335 632.459 834.335 628.96V588.256H818.335V630.368ZM366.33 586.976C358.607 586.976 352.634 588.704 348.41 592.16C344.229 595.573 342.138 600.16 342.138 605.92C342.138 609.675 342.992 612.746 344.698 615.136C346.448 617.525 348.538 619.446 350.97 620.896C353.402 622.347 355.706 623.542 357.882 624.48C361.551 626.059 364.773 627.659 367.546 629.28C370.319 630.902 371.706 632.715 371.706 634.72C371.706 636.17 371.087 637.515 369.85 638.752C368.655 639.989 366.543 640.608 363.514 640.608C359.631 640.608 356.218 639.861 353.274 638.368C350.373 636.875 347.984 635.36 346.106 633.824L341.37 645.984C342.01 646.752 343.141 647.712 344.762 648.864C346.426 649.974 348.73 650.976 351.674 651.872C354.66 652.725 358.479 653.152 363.13 653.152C369.018 653.152 373.754 652.213 377.338 650.336C380.922 648.416 383.525 645.941 385.146 642.912C386.768 639.84 387.578 636.554 387.578 633.056C387.578 628.363 385.936 624.501 382.65 621.472C379.408 618.4 375.119 615.818 369.786 613.728C366.586 612.448 363.834 611.147 361.53 609.824C359.269 608.459 358.138 606.73 358.138 604.64C358.138 602.763 358.778 601.397 360.058 600.544C361.338 599.691 363.599 599.264 366.842 599.264C369.786 599.264 372.538 599.84 375.098 600.992C377.657 602.144 379.77 603.36 381.434 604.64L385.786 593.12C384.634 591.968 382.33 590.666 378.874 589.216C375.461 587.723 371.279 586.976 366.33 586.976ZM174.48 562.784V577.248H195.088V652H211.6V577.248H232.208V562.784H174.48ZM243.484 652H259.228V611.552C259.228 608.011 260.401 605.152 262.748 602.976C265.095 600.757 267.761 599.648 270.748 599.648C273.777 599.648 276.124 600.757 277.788 602.976C279.495 605.152 280.348 608.011 280.348 611.552V652H296.732V609.888C296.732 602.635 295.153 596.96 291.996 592.864C288.839 588.768 284.06 586.72 277.66 586.72C272.583 586.72 268.508 587.701 265.436 589.664C262.364 591.627 259.974 593.846 258.268 596.32L258.588 586.72V554.464H243.484V652ZM311.85 652H328.49V588.256H311.85V652ZM739.975 652H756.615V588.256H739.975V652ZM799.28 552.672C796.806 552.672 794.224 553.077 791.536 553.888C788.891 554.656 786.416 556 784.112 557.92C781.808 559.84 779.931 562.464 778.48 565.792C777.072 569.12 776.368 573.323 776.368 578.4V588.256H767.792V601.696H776.368V652H791.856V601.696H807.344V588.256H791.856V578.016C791.857 574.005 792.859 571.083 794.864 569.248C796.869 567.371 799.365 566.432 802.352 566.432C803.717 566.432 805.296 566.731 807.088 567.328C808.88 567.883 810.245 568.779 811.184 570.016V555.488C810.16 554.891 808.794 554.272 807.088 553.632C805.424 552.992 802.821 552.672 799.28 552.672ZM884.604 652H900.22V554.72H884.604V652ZM591.915 623.968C592.427 623.968 592.897 624.01 593.323 624.096V633.184C592.043 635.616 590.294 637.622 588.075 639.2C585.899 640.736 583.851 641.504 581.931 641.504C579.115 641.504 577.024 640.864 575.659 639.584C574.294 638.304 573.611 636.128 573.611 633.056C573.611 630.709 574.507 628.874 576.299 627.552C578.091 626.229 580.267 625.312 582.827 624.8C585.43 624.245 587.904 623.968 590.251 623.968H591.915ZM454.26 599.648C457.545 599.648 460.383 601.226 462.772 604.384C465.204 607.541 466.42 612.704 466.42 619.872C466.42 625.035 465.823 629.173 464.628 632.288C463.433 635.403 461.876 637.664 459.956 639.072C458.079 640.438 456.095 641.12 454.004 641.12C450.292 641.12 447.37 639.264 445.236 635.552C443.146 631.797 442.1 626.911 442.1 620.896C442.1 614.88 443.124 609.845 445.172 605.792C447.262 601.696 450.292 599.649 454.26 599.648ZM523.581 598.88C525.33 598.88 526.888 599.328 528.253 600.224C529.618 601.12 530.685 602.763 531.453 605.152C532.264 607.499 532.669 610.912 532.669 615.392H510.141C510.397 610.826 511.613 606.944 513.789 603.744C515.965 600.501 519.229 598.88 523.581 598.88ZM311.21 577.888H329.13V560.864H311.21V577.888ZM739.335 577.888H757.255V560.864H739.335V577.888Z" fill="#F2A200"/>
</svg>
