<svg width="1080" height="1920" viewBox="0 0 1080 1920" fill="none" xmlns="http://www.w3.org/2000/svg">
<rect width="1080" height="1920" fill="#DAD1CA"/>
<g filter="url(#filter0_d_101_2)">
<path d="M56.9434 1511.73C51.2794 1511.73 46.3514 1510.32 42.1594 1507.5C37.9674 1504.69 34.7034 1500.61 32.3674 1495.26C30.0634 1489.92 28.9114 1483.47 28.9114 1475.92C28.9114 1469.3 30.1754 1463.44 32.7034 1458.35C35.2314 1453.23 38.7194 1449.22 43.1674 1446.3C47.6474 1443.39 52.7834 1441.94 58.5754 1441.94C62.7994 1441.94 66.1754 1442.27 68.7034 1442.94C71.2634 1443.58 73.2474 1444.37 74.6554 1445.3C76.0954 1446.22 77.2314 1447.09 78.0634 1447.89L72.7834 1458.54C72.3034 1457.9 71.5514 1457.17 70.5274 1456.34C69.5034 1455.5 68.0474 1454.78 66.1594 1454.18C64.2714 1453.57 61.8074 1453.26 58.7674 1453.26C55.5354 1453.26 52.6394 1454.21 50.0794 1456.1C47.5194 1457.98 45.4874 1460.61 43.9834 1463.97C42.5114 1467.33 41.7754 1471.22 41.7754 1475.63C41.7754 1483.63 43.1834 1489.86 45.9994 1494.3C48.8154 1498.75 52.5274 1500.98 57.1354 1500.98C62.0954 1500.98 65.5994 1499.81 67.6474 1497.47C69.7274 1495.1 70.7674 1491.7 70.7674 1487.25C70.7674 1486.48 70.7354 1485.62 70.6714 1484.66H56.9434V1474.1H81.9994C82.1594 1475.57 82.2874 1477.15 82.3834 1478.85C82.5114 1480.54 82.5754 1482.06 82.5754 1483.41C82.5754 1487.02 82.2234 1490.53 81.5194 1493.92C80.8154 1497.31 79.5354 1500.35 77.6794 1503.04C75.8234 1505.7 73.2154 1507.81 69.8554 1509.38C66.5274 1510.94 62.2234 1511.73 56.9434 1511.73ZM112.23 1511.25C106.854 1511.25 102.518 1510.13 99.2224 1507.89C95.9264 1505.62 93.5264 1502.62 92.0224 1498.91C90.5184 1495.17 89.7664 1491.09 89.7664 1486.67C89.7664 1482.03 90.6144 1477.78 92.3104 1473.9C94.0384 1470 96.5504 1466.88 99.8464 1464.54C103.174 1462.21 107.238 1461.04 112.038 1461.04C119.206 1461.04 124.214 1463.12 127.062 1467.28C129.91 1471.41 131.334 1477.26 131.334 1484.85C131.334 1485.52 131.318 1486.37 131.286 1487.39C131.254 1488.42 131.206 1489.3 131.142 1490.03H102.342C102.534 1493.81 103.59 1496.77 105.51 1498.91C107.462 1501.06 110.374 1502.13 114.246 1502.13C116.23 1502.13 118.358 1501.7 120.63 1500.83C122.902 1499.94 124.582 1498.86 125.67 1497.62L129.51 1506.74C128.23 1507.6 126.198 1508.58 123.414 1509.66C120.662 1510.72 116.934 1511.25 112.23 1511.25ZM102.246 1482.54H119.142C119.142 1479.18 118.838 1476.62 118.23 1474.86C117.654 1473.07 116.854 1471.84 115.83 1471.17C114.806 1470.5 113.638 1470.16 112.326 1470.16C109.062 1470.16 106.614 1471.38 104.982 1473.81C103.35 1476.21 102.438 1479.12 102.246 1482.54ZM140.932 1510V1462.19H152.068L152.308 1468.48C153.556 1466.56 155.3 1464.85 157.54 1463.34C159.78 1461.81 162.724 1461.04 166.372 1461.04C171.236 1461.04 174.852 1462.58 177.22 1465.65C179.588 1468.72 180.772 1472.98 180.772 1478.42V1510H168.484V1479.47C168.484 1476.82 167.924 1474.67 166.804 1473.04C165.684 1471.38 163.972 1470.54 161.668 1470.54C159.428 1470.54 157.46 1471.38 155.764 1473.04C154.068 1474.67 153.22 1476.82 153.22 1479.47V1510H140.932ZM212.543 1511.25C207.167 1511.25 202.831 1510.13 199.535 1507.89C196.239 1505.62 193.839 1502.62 192.335 1498.91C190.831 1495.17 190.079 1491.09 190.079 1486.67C190.079 1482.03 190.927 1477.78 192.623 1473.9C194.351 1470 196.863 1466.88 200.159 1464.54C203.487 1462.21 207.551 1461.04 212.351 1461.04C219.519 1461.04 224.527 1463.12 227.375 1467.28C230.223 1471.41 231.647 1477.26 231.647 1484.85C231.647 1485.52 231.631 1486.37 231.599 1487.39C231.567 1488.42 231.519 1489.3 231.455 1490.03H202.655C202.847 1493.81 203.903 1496.77 205.823 1498.91C207.775 1501.06 210.687 1502.13 214.559 1502.13C216.543 1502.13 218.671 1501.7 220.943 1500.83C223.215 1499.94 224.895 1498.86 225.983 1497.62L229.823 1506.74C228.543 1507.6 226.511 1508.58 223.727 1509.66C220.975 1510.72 217.247 1511.25 212.543 1511.25ZM202.559 1482.54H219.455C219.455 1479.18 219.151 1476.62 218.543 1474.86C217.967 1473.07 217.167 1471.84 216.143 1471.17C215.119 1470.5 213.951 1470.16 212.639 1470.16C209.375 1470.16 206.927 1471.38 205.295 1473.81C203.663 1476.21 202.751 1479.12 202.559 1482.54ZM241.233 1510V1462.19H252.081L252.657 1470.64C253.169 1469.39 253.953 1468.06 255.009 1466.66C256.097 1465.25 257.585 1464.06 259.473 1463.1C261.393 1462.11 263.857 1461.62 266.865 1461.62C267.793 1461.62 268.609 1461.68 269.313 1461.81C270.017 1461.94 270.673 1462.13 271.281 1462.38L268.593 1474.96C267.569 1473.94 266.001 1473.42 263.889 1473.42C261.425 1473.42 259.409 1473.94 257.841 1474.96C256.273 1475.95 255.105 1477.07 254.337 1478.32C253.601 1479.57 253.233 1480.53 253.233 1481.2V1510H241.233ZM286.751 1511.34C283.807 1511.34 281.359 1510.69 279.407 1509.38C277.487 1508.06 276.047 1506.32 275.087 1504.14C274.159 1501.97 273.695 1499.57 273.695 1496.94C273.695 1495.47 274.063 1493.86 274.799 1492.1C275.567 1490.34 276.911 1488.66 278.831 1487.06C280.751 1485.46 283.455 1484.14 286.943 1483.12C290.431 1482.1 294.911 1481.58 300.383 1481.58V1479.38C300.383 1477.01 299.807 1475.04 298.655 1473.47C297.535 1471.9 295.263 1471.12 291.839 1471.12C289.343 1471.12 286.895 1471.55 284.495 1472.42C282.127 1473.25 280.383 1474.29 279.263 1475.54L275.423 1466.32C277.343 1465.01 279.903 1463.81 283.103 1462.72C286.335 1461.6 289.919 1461.04 293.855 1461.04C298.591 1461.04 302.271 1461.76 304.895 1463.2C307.519 1464.64 309.359 1466.69 310.415 1469.34C311.471 1471.97 311.999 1475.06 311.999 1478.61V1510H301.727L300.863 1503.18C297.535 1508.62 292.831 1511.34 286.751 1511.34ZM291.839 1502.13C293.279 1502.13 294.815 1501.55 296.447 1500.4C298.111 1499.22 299.423 1497.71 300.383 1495.89V1489.07C300.063 1489.01 299.711 1488.98 299.327 1488.98C298.975 1488.98 298.559 1488.98 298.079 1488.98C296.319 1488.98 294.463 1489.18 292.511 1489.6C290.591 1489.98 288.959 1490.67 287.615 1491.66C286.271 1492.66 285.599 1494.03 285.599 1495.79C285.599 1498.1 286.111 1499.73 287.135 1500.69C288.159 1501.65 289.727 1502.13 291.839 1502.13ZM339.489 1511.44C334.081 1511.44 330.417 1510.03 328.497 1507.22C326.609 1504.4 325.665 1500.14 325.665 1494.45V1472.27H319.425V1462.19H326.145L326.817 1452.11L337.281 1447.6V1462.19H349.089V1472.27H337.281V1494.16C337.281 1496.94 337.665 1498.88 338.433 1499.97C339.233 1501.02 340.321 1501.55 341.697 1501.55C343.105 1501.55 344.593 1501.18 346.161 1500.45C347.729 1499.71 348.961 1498.96 349.857 1498.19L352.161 1507.89C351.169 1508.59 349.873 1509.22 348.273 1509.76C346.705 1510.27 345.105 1510.67 343.473 1510.96C341.873 1511.28 340.545 1511.44 339.489 1511.44ZM379.043 1511.25C373.667 1511.25 369.331 1510.13 366.035 1507.89C362.739 1505.62 360.339 1502.62 358.835 1498.91C357.331 1495.17 356.579 1491.09 356.579 1486.67C356.579 1482.03 357.427 1477.78 359.123 1473.9C360.851 1470 363.363 1466.88 366.659 1464.54C369.987 1462.21 374.051 1461.04 378.851 1461.04C386.019 1461.04 391.027 1463.12 393.875 1467.28C396.723 1471.41 398.147 1477.26 398.147 1484.85C398.147 1485.52 398.131 1486.37 398.099 1487.39C398.067 1488.42 398.019 1489.3 397.955 1490.03H369.155C369.347 1493.81 370.403 1496.77 372.323 1498.91C374.275 1501.06 377.187 1502.13 381.059 1502.13C383.043 1502.13 385.171 1501.7 387.443 1500.83C389.715 1499.94 391.395 1498.86 392.483 1497.62L396.323 1506.74C395.043 1507.6 393.011 1508.58 390.227 1509.66C387.475 1510.72 383.747 1511.25 379.043 1511.25ZM369.059 1482.54H385.955C385.955 1479.18 385.651 1476.62 385.043 1474.86C384.467 1473.07 383.667 1471.84 382.643 1471.17C381.619 1470.5 380.451 1470.16 379.139 1470.16C375.875 1470.16 373.427 1471.38 371.795 1473.81C370.163 1476.21 369.251 1479.12 369.059 1482.54ZM418.977 1510L447.297 1441.94H448.257L476.673 1510H463.617L459.873 1500.3H435.969L432.417 1510H418.977ZM446.145 1472.75L439.425 1490.99H456.321L449.313 1472.75L447.681 1467.38L446.145 1472.75ZM500.154 1511.15C495.066 1511.15 490.922 1510.02 487.722 1507.74C484.522 1505.44 482.154 1502.4 480.618 1498.62C479.114 1494.85 478.362 1490.74 478.362 1486.29C478.362 1481.87 479.21 1477.74 480.906 1473.9C482.602 1470.06 485.114 1466.96 488.442 1464.59C491.77 1462.22 495.898 1461.04 500.826 1461.04C503.578 1461.04 506.074 1461.33 508.314 1461.9C510.554 1462.48 512.73 1463.63 514.842 1465.36L510.906 1475.54C509.946 1474.1 508.538 1472.99 506.682 1472.22C504.858 1471.42 503.13 1471.02 501.498 1471.02C494.522 1471.02 491.034 1476.08 491.034 1486.19C491.034 1491.5 491.898 1495.36 493.626 1497.76C495.386 1500.16 498.01 1501.36 501.498 1501.36C503.802 1501.36 505.834 1500.93 507.594 1500.06C509.354 1499.17 510.682 1498.22 511.578 1497.23L515.226 1505.78C514.33 1506.74 512.57 1507.87 509.946 1509.18C507.322 1510.5 504.058 1511.15 500.154 1511.15ZM540.395 1511.44C534.987 1511.44 531.323 1510.03 529.403 1507.22C527.515 1504.4 526.571 1500.14 526.571 1494.45V1472.27H520.331V1462.19H527.051L527.723 1452.11L538.187 1447.6V1462.19H549.995V1472.27H538.187V1494.16C538.187 1496.94 538.571 1498.88 539.339 1499.97C540.139 1501.02 541.227 1501.55 542.603 1501.55C544.011 1501.55 545.499 1501.18 547.067 1500.45C548.635 1499.71 549.867 1498.96 550.763 1498.19L553.067 1507.89C552.075 1508.59 550.779 1509.22 549.179 1509.76C547.611 1510.27 546.011 1510.67 544.379 1510.96C542.779 1511.28 541.451 1511.44 540.395 1511.44ZM560.829 1454.42V1441.65H574.269V1454.42H560.829ZM561.309 1510V1462.19H573.789V1510H561.309ZM605.534 1510.96C598.494 1510.96 593.054 1508.75 589.214 1504.34C585.374 1499.92 583.454 1493.81 583.454 1486C583.454 1478.13 585.438 1472 589.406 1467.62C593.374 1463.23 598.878 1461.04 605.918 1461.04C612.99 1461.04 618.366 1463.31 622.046 1467.86C625.758 1472.37 627.614 1478.42 627.614 1486C627.614 1493.58 625.694 1499.65 621.854 1504.19C618.046 1508.7 612.606 1510.96 605.534 1510.96ZM605.726 1501.36C611.806 1501.36 614.846 1496.24 614.846 1486C614.846 1475.7 611.806 1470.54 605.726 1470.54C602.718 1470.54 600.382 1471.74 598.718 1474.14C597.054 1476.51 596.222 1480.46 596.222 1486C596.222 1491.5 597.054 1495.44 598.718 1497.81C600.382 1500.18 602.718 1501.36 605.726 1501.36ZM637.151 1510V1462.19H648.287L648.527 1468.48C649.775 1466.56 651.519 1464.85 653.759 1463.34C655.999 1461.81 658.943 1461.04 662.591 1461.04C667.455 1461.04 671.071 1462.58 673.439 1465.65C675.807 1468.72 676.991 1472.98 676.991 1478.42V1510H664.703V1479.47C664.703 1476.82 664.143 1474.67 663.023 1473.04C661.903 1471.38 660.191 1470.54 657.887 1470.54C655.647 1470.54 653.679 1471.38 651.983 1473.04C650.287 1474.67 649.439 1476.82 649.439 1479.47V1510H637.151ZM708.817 1510V1443.09H726.769C731.313 1443.09 735.441 1443.78 739.153 1445.15C742.865 1446.53 745.825 1448.93 748.033 1452.35C750.241 1455.74 751.345 1460.46 751.345 1466.51C751.345 1470.9 750.513 1475.04 748.849 1478.94C747.185 1482.82 744.561 1485.97 740.977 1488.4C737.425 1490.83 732.817 1492.05 727.153 1492.05H721.201V1510H708.817ZM726.001 1452.78H721.201V1481.97H726.289C730.513 1481.97 733.681 1480.7 735.793 1478.18C737.905 1475.65 738.961 1471.98 738.961 1467.18C738.961 1462.29 738.001 1458.67 736.081 1456.34C734.161 1453.97 730.801 1452.78 726.001 1452.78ZM760.437 1510V1437.04H772.149V1510H760.437ZM794.782 1511.34C791.838 1511.34 789.39 1510.69 787.438 1509.38C785.518 1508.06 784.078 1506.32 783.118 1504.14C782.19 1501.97 781.726 1499.57 781.726 1496.94C781.726 1495.47 782.094 1493.86 782.83 1492.1C783.598 1490.34 784.942 1488.66 786.862 1487.06C788.782 1485.46 791.486 1484.14 794.974 1483.12C798.462 1482.1 802.942 1481.58 808.414 1481.58V1479.38C808.414 1477.01 807.838 1475.04 806.686 1473.47C805.566 1471.9 803.294 1471.12 799.87 1471.12C797.374 1471.12 794.926 1471.55 792.526 1472.42C790.158 1473.25 788.414 1474.29 787.294 1475.54L783.454 1466.32C785.374 1465.01 787.934 1463.81 791.134 1462.72C794.366 1461.6 797.95 1461.04 801.886 1461.04C806.622 1461.04 810.302 1461.76 812.926 1463.2C815.55 1464.64 817.39 1466.69 818.446 1469.34C819.502 1471.97 820.03 1475.06 820.03 1478.61V1510H809.758L808.894 1503.18C805.566 1508.62 800.862 1511.34 794.782 1511.34ZM799.87 1502.13C801.31 1502.13 802.846 1501.55 804.478 1500.4C806.142 1499.22 807.454 1497.71 808.414 1495.89V1489.07C808.094 1489.01 807.742 1488.98 807.358 1488.98C807.006 1488.98 806.59 1488.98 806.11 1488.98C804.35 1488.98 802.494 1489.18 800.542 1489.6C798.622 1489.98 796.99 1490.67 795.646 1491.66C794.302 1492.66 793.63 1494.03 793.63 1495.79C793.63 1498.1 794.142 1499.73 795.166 1500.69C796.19 1501.65 797.758 1502.13 799.87 1502.13ZM830.838 1510V1462.19H841.974L842.214 1468.48C843.462 1466.56 845.206 1464.85 847.446 1463.34C849.686 1461.81 852.63 1461.04 856.278 1461.04C861.142 1461.04 864.758 1462.58 867.126 1465.65C869.494 1468.72 870.678 1472.98 870.678 1478.42V1510H858.39V1479.47C858.39 1476.82 857.83 1474.67 856.71 1473.04C855.59 1471.38 853.878 1470.54 851.574 1470.54C849.334 1470.54 847.366 1471.38 845.67 1473.04C843.974 1474.67 843.126 1476.82 843.126 1479.47V1510H830.838ZM896.394 1510.86C892.906 1510.86 890.042 1510.54 887.802 1509.9C885.594 1509.23 883.866 1508.48 882.618 1507.65C881.402 1506.78 880.554 1506.06 880.074 1505.49L883.626 1496.37C885.034 1497.52 886.826 1498.66 889.002 1499.78C891.21 1500.9 893.77 1501.46 896.682 1501.46C898.954 1501.46 900.538 1500.99 901.434 1500.06C902.362 1499.14 902.826 1498.13 902.826 1497.04C902.826 1495.54 901.786 1494.18 899.706 1492.96C897.626 1491.74 895.21 1490.54 892.458 1489.36C890.826 1488.66 889.098 1487.76 887.274 1486.67C885.45 1485.58 883.882 1484.14 882.57 1482.35C881.29 1480.56 880.65 1478.26 880.65 1475.44C880.65 1471.12 882.218 1467.68 885.354 1465.12C888.522 1462.53 893.002 1461.23 898.794 1461.23C902.506 1461.23 905.642 1461.79 908.202 1462.91C910.794 1464 912.522 1464.98 913.386 1465.84L910.122 1474.48C908.874 1473.52 907.29 1472.61 905.37 1471.74C903.45 1470.88 901.386 1470.45 899.178 1470.45C896.746 1470.45 895.05 1470.77 894.09 1471.41C893.13 1472.05 892.65 1473.07 892.65 1474.48C892.65 1476.05 893.498 1477.34 895.194 1478.37C896.922 1479.36 898.986 1480.34 901.386 1481.3C905.386 1482.86 908.602 1484.8 911.034 1487.1C913.498 1489.38 914.73 1492.27 914.73 1495.79C914.73 1498.42 914.122 1500.88 912.906 1503.18C911.69 1505.46 909.738 1507.31 907.05 1508.75C904.362 1510.16 900.81 1510.86 896.394 1510.86ZM944.198 1510V1472.27H937.766V1462.19H944.198V1454.8C944.198 1450.99 944.726 1447.84 945.782 1445.34C946.87 1442.85 948.278 1440.88 950.006 1439.44C951.734 1438 953.59 1436.99 955.574 1436.42C957.59 1435.81 959.526 1435.5 961.382 1435.5C964.038 1435.5 965.99 1435.74 967.238 1436.22C968.518 1436.7 969.542 1437.17 970.31 1437.62V1448.51C969.606 1447.58 968.582 1446.91 967.238 1446.5C965.894 1446.05 964.71 1445.82 963.686 1445.82C961.446 1445.82 959.574 1446.53 958.07 1447.94C956.566 1449.31 955.814 1451.5 955.814 1454.51V1462.19H967.43V1472.27H955.814V1510H944.198ZM993.096 1510.96C986.056 1510.96 980.616 1508.75 976.776 1504.34C972.936 1499.92 971.016 1493.81 971.016 1486C971.016 1478.13 973 1472 976.968 1467.62C980.936 1463.23 986.44 1461.04 993.48 1461.04C1000.55 1461.04 1005.93 1463.31 1009.61 1467.86C1013.32 1472.37 1015.18 1478.42 1015.18 1486C1015.18 1493.58 1013.26 1499.65 1009.42 1504.19C1005.61 1508.7 1000.17 1510.96 993.096 1510.96ZM993.288 1501.36C999.368 1501.36 1002.41 1496.24 1002.41 1486C1002.41 1475.7 999.368 1470.54 993.288 1470.54C990.28 1470.54 987.944 1471.74 986.28 1474.14C984.616 1476.51 983.784 1480.46 983.784 1486C983.784 1491.5 984.616 1495.44 986.28 1497.81C987.944 1500.18 990.28 1501.36 993.288 1501.36ZM1024.61 1510V1462.19H1035.46L1036.03 1470.64C1036.54 1469.39 1037.33 1468.06 1038.38 1466.66C1039.47 1465.25 1040.96 1464.06 1042.85 1463.1C1044.77 1462.11 1047.23 1461.62 1050.24 1461.62C1051.17 1461.62 1051.98 1461.68 1052.69 1461.81C1053.39 1461.94 1054.05 1462.13 1054.66 1462.38L1051.97 1474.96C1050.94 1473.94 1049.38 1473.42 1047.26 1473.42C1044.8 1473.42 1042.78 1473.94 1041.22 1474.96C1039.65 1475.95 1038.48 1477.07 1037.71 1478.32C1036.98 1479.57 1036.61 1480.53 1036.61 1481.2V1510H1024.61ZM240.076 1634.34L208.012 1597.77L205.036 1593.93L205.516 1603.24V1633H193.708V1564.94H194.764L226.348 1601.8L229.708 1606.17L229.228 1597V1566.09H241.036V1634.34H240.076ZM254.739 1633V1566.09H272.691C277.235 1566.09 281.363 1566.78 285.075 1568.15C288.787 1569.53 291.747 1571.93 293.955 1575.35C296.163 1578.74 297.267 1583.46 297.267 1589.51C297.267 1593.9 296.435 1598.04 294.771 1601.94C293.107 1605.82 290.483 1608.97 286.899 1611.4C283.347 1613.83 278.739 1615.05 273.075 1615.05H267.123V1633H254.739ZM271.923 1575.78H267.123V1604.97H272.211C276.435 1604.97 279.603 1603.7 281.715 1601.18C283.827 1598.65 284.883 1594.98 284.883 1590.18C284.883 1585.29 283.923 1581.67 282.003 1579.34C280.083 1576.97 276.723 1575.78 271.923 1575.78ZM331.189 1634.15C327.701 1634.15 324.341 1633.45 321.109 1632.04C317.877 1630.6 314.965 1628.44 312.373 1625.56C309.813 1622.65 307.781 1618.95 306.277 1614.47C304.773 1609.99 304.021 1604.71 304.021 1598.63C304.021 1591.34 305.285 1585.19 307.813 1580.2C310.373 1575.18 313.781 1571.38 318.037 1568.82C322.325 1566.23 327.061 1564.94 332.245 1564.94C335.765 1564.94 338.629 1565.27 340.837 1565.94C343.077 1566.62 344.853 1567.42 346.165 1568.34C347.509 1569.27 348.597 1570.12 349.429 1570.89L344.053 1580.97C342.677 1579.46 341.253 1578.26 339.781 1577.37C338.309 1576.44 335.957 1575.98 332.725 1575.98C329.461 1575.98 326.677 1576.92 324.373 1578.81C322.101 1580.7 320.357 1583.3 319.141 1586.63C317.957 1589.93 317.365 1593.7 317.365 1597.96C317.365 1606.31 318.757 1612.62 321.541 1616.87C324.357 1621.1 327.733 1623.21 331.669 1623.21C334.709 1623.21 337.301 1622.78 339.445 1621.91C341.589 1621.05 343.189 1620.07 344.245 1618.98L349.525 1628.49C348.629 1629.22 347.429 1630.04 345.925 1630.94C344.453 1631.8 342.517 1632.55 340.117 1633.19C337.749 1633.83 334.773 1634.15 331.189 1634.15ZM369.754 1633.86C366.266 1633.86 363.402 1633.54 361.162 1632.9C358.954 1632.23 357.226 1631.48 355.978 1630.65C354.762 1629.78 353.914 1629.06 353.434 1628.49L356.986 1619.37C358.394 1620.52 360.186 1621.66 362.362 1622.78C364.57 1623.9 367.13 1624.46 370.042 1624.46C372.314 1624.46 373.898 1623.99 374.794 1623.06C375.722 1622.14 376.186 1621.13 376.186 1620.04C376.186 1618.54 375.146 1617.18 373.066 1615.96C370.986 1614.74 368.57 1613.54 365.818 1612.36C364.186 1611.66 362.458 1610.76 360.634 1609.67C358.81 1608.58 357.242 1607.14 355.93 1605.35C354.65 1603.56 354.01 1601.26 354.01 1598.44C354.01 1594.12 355.578 1590.68 358.714 1588.12C361.882 1585.53 366.362 1584.23 372.154 1584.23C375.866 1584.23 379.002 1584.79 381.562 1585.91C384.154 1587 385.882 1587.98 386.746 1588.84L383.482 1597.48C382.234 1596.52 380.65 1595.61 378.73 1594.74C376.81 1593.88 374.746 1593.45 372.538 1593.45C370.106 1593.45 368.41 1593.77 367.45 1594.41C366.49 1595.05 366.01 1596.07 366.01 1597.48C366.01 1599.05 366.858 1600.34 368.554 1601.37C370.282 1602.36 372.346 1603.34 374.746 1604.3C378.746 1605.86 381.962 1607.8 384.394 1610.1C386.858 1612.38 388.09 1615.27 388.09 1618.79C388.09 1621.42 387.482 1623.88 386.266 1626.18C385.05 1628.46 383.098 1630.31 380.41 1631.75C377.722 1633.16 374.17 1633.86 369.754 1633.86ZM428.597 1633L409.205 1585.19H422.645L430.901 1609.1L433.013 1616.97L434.933 1609.1L442.901 1585.19H455.573L437.141 1633H428.597ZM461.314 1577.42V1564.65H474.754V1577.42H461.314ZM461.794 1633V1585.19H474.274V1633H461.794ZM496.892 1634.34C493.948 1634.34 491.5 1633.69 489.548 1632.38C487.628 1631.06 486.188 1629.32 485.228 1627.14C484.3 1624.97 483.836 1622.57 483.836 1619.94C483.836 1618.47 484.204 1616.86 484.94 1615.1C485.708 1613.34 487.052 1611.66 488.972 1610.06C490.892 1608.46 493.596 1607.14 497.084 1606.12C500.572 1605.1 505.052 1604.58 510.524 1604.58V1602.38C510.524 1600.01 509.948 1598.04 508.796 1596.47C507.676 1594.9 505.404 1594.12 501.98 1594.12C499.484 1594.12 497.036 1594.55 494.636 1595.42C492.268 1596.25 490.524 1597.29 489.404 1598.54L485.564 1589.32C487.484 1588.01 490.044 1586.81 493.244 1585.72C496.476 1584.6 500.06 1584.04 503.996 1584.04C508.732 1584.04 512.412 1584.76 515.036 1586.2C517.66 1587.64 519.5 1589.69 520.556 1592.34C521.612 1594.97 522.14 1598.06 522.14 1601.61V1633H511.868L511.004 1626.18C507.676 1631.62 502.972 1634.34 496.892 1634.34ZM501.98 1625.13C503.42 1625.13 504.956 1624.55 506.588 1623.4C508.252 1622.22 509.564 1620.71 510.524 1618.89V1612.07C510.204 1612.01 509.852 1611.98 509.468 1611.98C509.116 1611.98 508.7 1611.98 508.22 1611.98C506.46 1611.98 504.604 1612.18 502.652 1612.6C500.732 1612.98 499.1 1613.67 497.756 1614.66C496.412 1615.66 495.74 1617.03 495.74 1618.79C495.74 1621.1 496.252 1622.73 497.276 1623.69C498.3 1624.65 499.868 1625.13 501.98 1625.13ZM553.052 1633V1566.09H571.004C575.548 1566.09 579.676 1566.78 583.388 1568.15C587.1 1569.53 590.06 1571.93 592.268 1575.35C594.476 1578.74 595.58 1583.46 595.58 1589.51C595.58 1593.9 594.748 1598.04 593.084 1601.94C591.42 1605.82 588.796 1608.97 585.212 1611.4C581.66 1613.83 577.052 1615.05 571.388 1615.05H565.436V1633H553.052ZM570.236 1575.78H565.436V1604.97H570.524C574.748 1604.97 577.916 1603.7 580.028 1601.18C582.14 1598.65 583.196 1594.98 583.196 1590.18C583.196 1585.29 582.236 1581.67 580.316 1579.34C578.396 1576.97 575.036 1575.78 570.236 1575.78ZM603.437 1633V1585.19H614.285L614.861 1593.64C615.373 1592.39 616.157 1591.06 617.213 1589.66C618.301 1588.25 619.789 1587.06 621.677 1586.1C623.597 1585.11 626.061 1584.62 629.069 1584.62C629.997 1584.62 630.813 1584.68 631.517 1584.81C632.221 1584.94 632.877 1585.13 633.485 1585.38L630.797 1597.96C629.773 1596.94 628.205 1596.42 626.093 1596.42C623.629 1596.42 621.613 1596.94 620.045 1597.96C618.477 1598.95 617.309 1600.07 616.541 1601.32C615.805 1602.57 615.437 1603.53 615.437 1604.2V1633H603.437ZM658.175 1633.96C651.135 1633.96 645.695 1631.75 641.855 1627.34C638.015 1622.92 636.095 1616.81 636.095 1609C636.095 1601.13 638.079 1595 642.047 1590.62C646.015 1586.23 651.519 1584.04 658.559 1584.04C665.631 1584.04 671.007 1586.31 674.687 1590.86C678.399 1595.37 680.255 1601.42 680.255 1609C680.255 1616.58 678.335 1622.65 674.495 1627.19C670.687 1631.7 665.247 1633.96 658.175 1633.96ZM658.367 1624.36C664.447 1624.36 667.487 1619.24 667.487 1609C667.487 1598.7 664.447 1593.54 658.367 1593.54C655.359 1593.54 653.023 1594.74 651.359 1597.14C649.695 1599.51 648.863 1603.46 648.863 1609C648.863 1614.5 649.695 1618.44 651.359 1620.81C653.023 1623.18 655.359 1624.36 658.367 1624.36ZM689.792 1633V1585.19H700.832L701.12 1591.53C702.368 1589.61 704.096 1587.88 706.304 1586.34C708.544 1584.81 711.52 1584.04 715.232 1584.04C718.464 1584.04 721.152 1584.76 723.296 1586.2C725.44 1587.64 727.056 1589.67 728.144 1592.3C729.36 1590.28 731.104 1588.41 733.375 1586.68C735.68 1584.92 738.88 1584.04 742.976 1584.04C747.776 1584.04 751.36 1585.58 753.728 1588.65C756.096 1591.72 757.28 1595.98 757.28 1601.42V1633H745.088V1602.66C745.088 1600.01 744.576 1597.86 743.552 1596.23C742.528 1594.57 740.864 1593.74 738.56 1593.74C736.32 1593.74 734.288 1594.57 732.464 1596.23C730.64 1597.86 729.728 1600.01 729.728 1602.66V1633H717.44V1602.66C717.44 1600.01 716.848 1597.83 715.664 1596.14C714.512 1594.41 712.8 1593.54 710.528 1593.54C708.224 1593.54 706.24 1594.41 704.576 1596.14C702.912 1597.83 702.08 1600.01 702.08 1602.66V1633H689.792ZM768.265 1653.93V1585.19H779.689V1586.73L778.729 1593.45C779.113 1591.62 779.977 1589.99 781.321 1588.55C782.697 1587.11 784.361 1585.99 786.313 1585.19C788.297 1584.36 790.377 1583.94 792.553 1583.94C798.889 1583.94 803.513 1586.17 806.425 1590.62C809.337 1595.03 810.793 1600.97 810.793 1608.42C810.793 1616.78 809.017 1623.19 805.465 1627.67C801.945 1632.12 797.321 1634.34 791.593 1634.34C788.041 1634.34 785.193 1633.24 783.049 1631.03C780.937 1628.82 779.497 1626.31 778.729 1623.5L779.881 1632.52V1653.93H768.265ZM788.809 1624.84C790.345 1624.84 791.833 1624.33 793.273 1623.3C794.713 1622.25 795.897 1620.55 796.825 1618.22C797.753 1615.88 798.217 1612.78 798.217 1608.9C798.217 1603.53 797.289 1599.66 795.433 1597.29C793.609 1594.92 791.465 1593.74 789.001 1593.74C786.025 1593.74 783.753 1595.27 782.185 1598.34C780.649 1601.38 779.881 1605.16 779.881 1609.67C779.881 1614.18 780.665 1617.85 782.233 1620.66C783.833 1623.45 786.025 1624.84 788.809 1624.84ZM836.786 1634.44C831.378 1634.44 827.714 1633.03 825.794 1630.22C823.906 1627.4 822.962 1623.14 822.962 1617.45V1595.27H816.722V1585.19H823.442L824.114 1575.11L834.578 1570.6V1585.19H846.386V1595.27H834.578V1617.16C834.578 1619.94 834.962 1621.88 835.73 1622.97C836.53 1624.02 837.618 1624.55 838.994 1624.55C840.402 1624.55 841.89 1624.18 843.458 1623.45C845.026 1622.71 846.258 1621.96 847.154 1621.19L849.458 1630.89C848.466 1631.59 847.17 1632.22 845.57 1632.76C844.002 1633.27 842.402 1633.67 840.77 1633.96C839.17 1634.28 837.842 1634.44 836.786 1634.44ZM871.41 1633.86C867.922 1633.86 865.058 1633.54 862.818 1632.9C860.61 1632.23 858.882 1631.48 857.634 1630.65C856.418 1629.78 855.57 1629.06 855.09 1628.49L858.642 1619.37C860.05 1620.52 861.842 1621.66 864.018 1622.78C866.226 1623.9 868.786 1624.46 871.698 1624.46C873.97 1624.46 875.554 1623.99 876.45 1623.06C877.378 1622.14 877.842 1621.13 877.842 1620.04C877.842 1618.54 876.802 1617.18 874.722 1615.96C872.642 1614.74 870.226 1613.54 867.474 1612.36C865.842 1611.66 864.114 1610.76 862.29 1609.67C860.466 1608.58 858.898 1607.14 857.586 1605.35C856.306 1603.56 855.666 1601.26 855.666 1598.44C855.666 1594.12 857.234 1590.68 860.37 1588.12C863.538 1585.53 868.018 1584.23 873.81 1584.23C877.522 1584.23 880.658 1584.79 883.218 1585.91C885.81 1587 887.538 1587.98 888.402 1588.84L885.138 1597.48C883.89 1596.52 882.306 1595.61 880.386 1594.74C878.466 1593.88 876.402 1593.45 874.194 1593.45C871.762 1593.45 870.066 1593.77 869.106 1594.41C868.146 1595.05 867.666 1596.07 867.666 1597.48C867.666 1599.05 868.514 1600.34 870.21 1601.37C871.938 1602.36 874.002 1603.34 876.402 1604.3C880.402 1605.86 883.618 1607.8 886.05 1610.1C888.514 1612.38 889.746 1615.27 889.746 1618.79C889.746 1621.42 889.138 1623.88 887.922 1626.18C886.706 1628.46 884.754 1630.31 882.066 1631.75C879.378 1633.16 875.826 1633.86 871.41 1633.86Z" fill="#615546"/>
</g>
<circle cx="647.5" cy="844.5" r="243.5" fill="#76716C"/>
<circle cx="665.5" cy="825.5" r="243.5" fill="#8F8982"/>
<circle cx="666" cy="826" r="190" fill="#CCF6FF"/>
<ellipse cx="747.314" cy="736.314" rx="56.0962" ry="97.0824" transform="rotate(-45 747.314 736.314)" fill="white"/>
<ellipse cx="826.492" cy="665.492" rx="10.4801" ry="25.5714" transform="rotate(-45 826.492 665.492)" fill="white"/>
<path d="M462.086 986L512.783 1036.7L413.687 1135.79C403.924 1145.56 388.095 1145.56 378.332 1135.79L362.991 1120.45C353.227 1110.69 353.227 1094.86 362.991 1085.1L462.086 986Z" fill="#8F8982"/>
<rect x="393.058" y="1038.46" width="99" height="287" rx="25" transform="rotate(45 393.058 1038.46)" fill="#6B461C"/>
<rect x="223.853" y="1208.47" width="98.2582" height="74.7443" rx="25" transform="rotate(45 223.853 1208.47)" fill="#482D0E"/>
<g filter="url(#filter1_d_101_2)">
<path d="M153.41 469H133.57L110.658 436.744V469H94.402V379.784H119.234C125.293 379.784 130.711 380.68 135.49 382.472C140.269 384.221 144.045 387.165 146.818 391.304C149.591 395.443 150.978 401.075 150.978 408.2C150.978 412.083 150.317 416.093 148.994 420.232C147.714 424.328 145.559 427.997 142.53 431.24C139.543 434.483 135.49 436.744 130.37 438.024L153.41 469ZM110.658 428.68H117.442C121.197 428.68 124.333 427.805 126.85 426.056C129.41 424.264 131.33 421.939 132.61 419.08C133.933 416.179 134.594 413.064 134.594 409.736C134.594 403.976 133.271 399.688 130.626 396.872C127.981 394.013 123.458 392.584 117.058 392.584H110.658V428.68ZM190.578 470.664C183.41 470.664 177.629 469.171 173.234 466.184C168.839 463.155 165.639 459.165 163.634 454.216C161.629 449.224 160.626 443.784 160.626 437.896C160.626 431.709 161.757 426.035 164.018 420.872C166.322 415.667 169.671 411.507 174.066 408.392C178.503 405.277 183.922 403.72 190.322 403.72C199.879 403.72 206.557 406.493 210.354 412.04C214.151 417.544 216.05 425.352 216.05 435.464C216.05 436.36 216.029 437.491 215.986 438.856C215.943 440.221 215.879 441.395 215.794 442.376H177.394C177.65 447.411 179.058 451.357 181.618 454.216C184.221 457.075 188.103 458.504 193.266 458.504C195.911 458.504 198.749 457.928 201.778 456.776C204.807 455.581 207.047 454.152 208.498 452.488L213.618 464.648C211.911 465.8 209.202 467.101 205.49 468.552C201.821 469.96 196.85 470.664 190.578 470.664ZM177.266 432.392H199.794C199.794 427.912 199.389 424.499 198.578 422.152C197.81 419.763 196.743 418.12 195.378 417.224C194.013 416.328 192.455 415.88 190.706 415.88C186.354 415.88 183.09 417.501 180.914 420.744C178.738 423.944 177.522 427.827 177.266 432.392ZM248.005 470.152C243.354 470.152 239.536 469.725 236.549 468.872C233.605 467.976 231.301 466.973 229.637 465.864C228.016 464.712 226.885 463.752 226.245 462.984L230.981 450.824C232.858 452.36 235.248 453.875 238.149 455.368C241.093 456.861 244.506 457.608 248.389 457.608C251.418 457.608 253.53 456.989 254.725 455.752C255.962 454.515 256.581 453.171 256.581 451.72C256.581 449.715 255.194 447.901 252.421 446.28C249.648 444.659 246.426 443.059 242.757 441.48C240.581 440.541 238.277 439.347 235.845 437.896C233.413 436.445 231.322 434.525 229.573 432.136C227.866 429.747 227.013 426.675 227.013 422.92C227.013 417.16 229.104 412.573 233.285 409.16C237.509 405.704 243.482 403.976 251.205 403.976C256.154 403.976 260.336 404.723 263.749 406.216C267.205 407.667 269.509 408.968 270.661 410.12L266.309 421.64C264.645 420.36 262.533 419.144 259.973 417.992C257.413 416.84 254.661 416.264 251.717 416.264C248.474 416.264 246.213 416.691 244.933 417.544C243.653 418.397 243.013 419.763 243.013 421.64C243.013 423.731 244.144 425.459 246.405 426.824C248.709 428.147 251.461 429.448 254.661 430.728C259.994 432.819 264.282 435.4 267.525 438.472C270.81 441.501 272.453 445.363 272.453 450.056C272.453 453.555 271.642 456.84 270.021 459.912C268.4 462.941 265.797 465.416 262.213 467.336C258.629 469.213 253.893 470.152 248.005 470.152ZM311.828 470.664C304.66 470.664 298.879 469.171 294.484 466.184C290.089 463.155 286.889 459.165 284.884 454.216C282.879 449.224 281.876 443.784 281.876 437.896C281.876 431.709 283.007 426.035 285.268 420.872C287.572 415.667 290.921 411.507 295.316 408.392C299.753 405.277 305.172 403.72 311.572 403.72C321.129 403.72 327.807 406.493 331.604 412.04C335.401 417.544 337.3 425.352 337.3 435.464C337.3 436.36 337.279 437.491 337.236 438.856C337.193 440.221 337.129 441.395 337.044 442.376H298.644C298.9 447.411 300.308 451.357 302.868 454.216C305.471 457.075 309.353 458.504 314.516 458.504C317.161 458.504 319.999 457.928 323.028 456.776C326.057 455.581 328.297 454.152 329.748 452.488L334.868 464.648C333.161 465.8 330.452 467.101 326.74 468.552C323.071 469.96 318.1 470.664 311.828 470.664ZM298.516 432.392H321.044C321.044 427.912 320.639 424.499 319.828 422.152C319.06 419.763 317.993 418.12 316.628 417.224C315.263 416.328 313.705 415.88 311.956 415.88C307.604 415.88 304.34 417.501 302.164 420.744C299.988 423.944 298.772 427.827 298.516 432.392ZM363.522 470.792C359.597 470.792 356.333 469.917 353.73 468.168C351.17 466.419 349.25 464.093 347.97 461.192C346.733 458.291 346.114 455.091 346.114 451.592C346.114 449.629 346.605 447.475 347.586 445.128C348.61 442.781 350.402 440.541 352.962 438.408C355.522 436.275 359.127 434.525 363.778 433.16C368.429 431.795 374.402 431.112 381.698 431.112V428.168C381.698 425.011 380.93 422.387 379.394 420.296C377.901 418.205 374.871 417.16 370.306 417.16C366.978 417.16 363.714 417.736 360.514 418.888C357.357 419.997 355.031 421.384 353.538 423.048L348.418 410.76C350.978 409.011 354.391 407.411 358.658 405.96C362.967 404.467 367.746 403.72 372.994 403.72C379.309 403.72 384.215 404.68 387.714 406.6C391.213 408.52 393.666 411.251 395.074 414.792C396.482 418.291 397.186 422.408 397.186 427.144V469H383.49L382.338 459.912C377.901 467.165 371.629 470.792 363.522 470.792ZM370.306 458.504C372.226 458.504 374.274 457.736 376.45 456.2C378.669 454.621 380.418 452.616 381.698 450.184V441.096C381.271 441.011 380.802 440.968 380.29 440.968C379.821 440.968 379.266 440.968 378.626 440.968C376.279 440.968 373.805 441.245 371.202 441.8C368.642 442.312 366.466 443.229 364.674 444.552C362.882 445.875 361.986 447.709 361.986 450.056C361.986 453.128 362.669 455.304 364.034 456.584C365.399 457.864 367.49 458.504 370.306 458.504ZM411.457 469V405.256H425.921L426.689 416.52C427.372 414.856 428.417 413.085 429.825 411.208C431.276 409.331 433.26 407.752 435.777 406.472C438.337 405.149 441.622 404.488 445.633 404.488C446.87 404.488 447.958 404.573 448.897 404.744C449.836 404.915 450.71 405.171 451.521 405.512L447.937 422.28C446.572 420.915 444.481 420.232 441.665 420.232C438.38 420.232 435.692 420.915 433.601 422.28C431.51 423.603 429.953 425.096 428.929 426.76C427.948 428.424 427.457 429.704 427.457 430.6V469H411.457ZM483.685 470.536C476.901 470.536 471.376 469.021 467.109 465.992C462.842 462.92 459.685 458.867 457.637 453.832C455.632 448.797 454.629 443.315 454.629 437.384C454.629 431.496 455.76 425.992 458.021 420.872C460.282 415.752 463.632 411.613 468.069 408.456C472.506 405.299 478.01 403.72 484.581 403.72C488.25 403.72 491.578 404.104 494.565 404.872C497.552 405.64 500.453 407.176 503.269 409.48L498.021 423.048C496.741 421.128 494.864 419.656 492.389 418.632C489.957 417.565 487.653 417.032 485.477 417.032C476.176 417.032 471.525 423.773 471.525 437.256C471.525 444.339 472.677 449.48 474.981 452.68C477.328 455.88 480.826 457.48 485.477 457.48C488.549 457.48 491.258 456.904 493.605 455.752C495.952 454.557 497.722 453.299 498.917 451.976L503.781 463.368C502.586 464.648 500.24 466.163 496.741 467.912C493.242 469.661 488.89 470.536 483.685 470.536ZM515.859 469V371.464H530.963V403.72L530.643 413.32C532.35 410.845 534.739 408.627 537.811 406.664C540.883 404.701 544.958 403.72 550.035 403.72C556.435 403.72 561.214 405.768 564.371 409.864C567.528 413.96 569.107 419.635 569.107 426.888V469H552.723V428.552C552.723 425.011 551.87 422.152 550.163 419.976C548.499 417.757 546.152 416.648 543.123 416.648C540.136 416.648 537.47 417.757 535.123 419.976C532.776 422.152 531.603 425.011 531.603 428.552V469H515.859ZM613.228 496.904V405.256H628.46V407.304L627.18 416.264C627.692 413.832 628.844 411.656 630.636 409.736C632.471 407.816 634.689 406.323 637.292 405.256C639.937 404.147 642.711 403.592 645.612 403.592C654.06 403.592 660.225 406.557 664.108 412.488C667.991 418.376 669.932 426.291 669.932 436.232C669.932 447.368 667.564 455.923 662.828 461.896C658.135 467.827 651.969 470.792 644.332 470.792C639.596 470.792 635.799 469.32 632.94 466.376C630.124 463.432 628.204 460.083 627.18 456.328L628.716 468.36V496.904H613.228ZM640.62 458.12C642.668 458.12 644.652 457.437 646.572 456.072C648.492 454.664 650.071 452.403 651.308 449.288C652.545 446.173 653.164 442.035 653.164 436.872C653.164 429.704 651.927 424.541 649.452 421.384C647.02 418.227 644.161 416.648 640.876 416.648C636.908 416.648 633.879 418.696 631.788 422.792C629.74 426.845 628.716 431.88 628.716 437.896C628.716 443.912 629.761 448.797 631.852 452.552C633.985 456.264 636.908 458.12 640.62 458.12ZM682.832 469V405.256H697.296L698.064 416.52C698.747 414.856 699.792 413.085 701.2 411.208C702.651 409.331 704.635 407.752 707.152 406.472C709.712 405.149 712.997 404.488 717.008 404.488C718.245 404.488 719.333 404.573 720.272 404.744C721.211 404.915 722.085 405.171 722.896 405.512L719.312 422.28C717.947 420.915 715.856 420.232 713.04 420.232C709.755 420.232 707.067 420.915 704.976 422.28C702.885 423.603 701.328 425.096 700.304 426.76C699.323 428.424 698.832 429.704 698.832 430.6V469H682.832ZM755.816 470.28C746.429 470.28 739.176 467.336 734.056 461.448C728.936 455.56 726.376 447.411 726.376 437C726.376 426.504 729.021 418.333 734.312 412.488C739.603 406.643 746.941 403.72 756.328 403.72C765.757 403.72 772.925 406.749 777.832 412.808C782.781 418.824 785.256 426.888 785.256 437C785.256 447.112 782.696 455.197 777.576 461.256C772.499 467.272 765.245 470.28 755.816 470.28ZM756.072 457.48C764.179 457.48 768.232 450.653 768.232 437C768.232 423.261 764.179 416.392 756.072 416.392C752.061 416.392 748.947 417.992 746.728 421.192C744.509 424.349 743.4 429.619 743.4 437C743.4 444.339 744.509 449.587 746.728 452.744C748.947 455.901 752.061 457.48 756.072 457.48ZM797.207 394.888V377.864H815.127V394.888H797.207ZM794.519 501L789.015 491.272C791.703 491.187 793.879 489.736 795.543 486.92C797.25 484.147 798.103 480.648 798.103 476.424V405.256H813.975V477.064C813.804 485.299 812.012 491.251 808.599 494.92C805.186 498.589 800.492 500.616 794.519 501ZM856.828 470.664C849.66 470.664 843.879 469.171 839.484 466.184C835.089 463.155 831.889 459.165 829.884 454.216C827.879 449.224 826.876 443.784 826.876 437.896C826.876 431.709 828.007 426.035 830.268 420.872C832.572 415.667 835.921 411.507 840.316 408.392C844.753 405.277 850.172 403.72 856.572 403.72C866.129 403.72 872.807 406.493 876.604 412.04C880.401 417.544 882.3 425.352 882.3 435.464C882.3 436.36 882.279 437.491 882.236 438.856C882.193 440.221 882.129 441.395 882.044 442.376H843.644C843.9 447.411 845.308 451.357 847.868 454.216C850.471 457.075 854.353 458.504 859.516 458.504C862.161 458.504 864.999 457.928 868.028 456.776C871.057 455.581 873.297 454.152 874.748 452.488L879.868 464.648C878.161 465.8 875.452 467.101 871.74 468.552C868.071 469.96 863.1 470.664 856.828 470.664ZM843.516 432.392H866.044C866.044 427.912 865.639 424.499 864.828 422.152C864.06 419.763 862.993 418.12 861.628 417.224C860.263 416.328 858.705 415.88 856.956 415.88C852.604 415.88 849.34 417.501 847.164 420.744C844.988 423.944 843.772 427.827 843.516 432.392ZM921.81 470.536C915.026 470.536 909.501 469.021 905.234 465.992C900.967 462.92 897.81 458.867 895.762 453.832C893.757 448.797 892.754 443.315 892.754 437.384C892.754 431.496 893.885 425.992 896.146 420.872C898.407 415.752 901.757 411.613 906.194 408.456C910.631 405.299 916.135 403.72 922.706 403.72C926.375 403.72 929.703 404.104 932.69 404.872C935.677 405.64 938.578 407.176 941.394 409.48L936.146 423.048C934.866 421.128 932.989 419.656 930.514 418.632C928.082 417.565 925.778 417.032 923.602 417.032C914.301 417.032 909.65 423.773 909.65 437.256C909.65 444.339 910.802 449.48 913.106 452.68C915.453 455.88 918.951 457.48 923.602 457.48C926.674 457.48 929.383 456.904 931.73 455.752C934.077 454.557 935.847 453.299 937.042 451.976L941.906 463.368C940.711 464.648 938.365 466.163 934.866 467.912C931.367 469.661 927.015 470.536 921.81 470.536ZM975.464 470.92C968.253 470.92 963.368 469.043 960.808 465.288C958.291 461.533 957.032 455.859 957.032 448.264V418.696H948.712V405.256H957.672L958.568 391.816L972.52 385.8V405.256H988.264V418.696H972.52V447.88C972.52 451.592 973.032 454.173 974.056 455.624C975.123 457.032 976.573 457.736 978.408 457.736C980.285 457.736 982.269 457.245 984.36 456.264C986.451 455.283 988.093 454.28 989.288 453.256L992.36 466.184C991.037 467.123 989.309 467.955 987.176 468.68C985.085 469.363 982.952 469.896 980.776 470.28C978.643 470.707 976.872 470.92 975.464 470.92Z" fill="#1C1B19"/>
</g>
<defs>
<filter id="filter0_d_101_2" x="24.9111" y="1435.5" width="1033.75" height="226.424" filterUnits="userSpaceOnUse" color-interpolation-filters="sRGB">
<feFlood flood-opacity="0" result="BackgroundImageFix"/>
<feColorMatrix in="SourceAlpha" type="matrix" values="0 0 0 0 0 0 0 0 0 0 0 0 0 0 0 0 0 0 127 0" result="hardAlpha"/>
<feOffset dy="4"/>
<feGaussianBlur stdDeviation="2"/>
<feComposite in2="hardAlpha" operator="out"/>
<feColorMatrix type="matrix" values="0 0 0 0 0 0 0 0 0 0 0 0 0 0 0 0 0 0 0.25 0"/>
<feBlend mode="normal" in2="BackgroundImageFix" result="effect1_dropShadow_101_2"/>
<feBlend mode="normal" in="SourceGraphic" in2="effect1_dropShadow_101_2" result="shape"/>
</filter>
<filter id="filter1_d_101_2" x="90.4023" y="371.464" width="905.958" height="137.536" filterUnits="userSpaceOnUse" color-interpolation-filters="sRGB">
<feFlood flood-opacity="0" result="BackgroundImageFix"/>
<feColorMatrix in="SourceAlpha" type="matrix" values="0 0 0 0 0 0 0 0 0 0 0 0 0 0 0 0 0 0 127 0" result="hardAlpha"/>
<feOffset dy="4"/>
<feGaussianBlur stdDeviation="2"/>
<feComposite in2="hardAlpha" operator="out"/>
<feColorMatrix type="matrix" values="0 0 0 0 0 0 0 0 0 0 0 0 0 0 0 0 0 0 0.25 0"/>
<feBlend mode="normal" in2="BackgroundImageFix" result="effect1_dropShadow_101_2"/>
<feBlend mode="normal" in="SourceGraphic" in2="effect1_dropShadow_101_2" result="shape"/>
</filter>
</defs>
</svg>
