<svg width="1080" height="1526" viewBox="0 0 1080 1526" fill="none" xmlns="http://www.w3.org/2000/svg">
<g clip-path="url(#clip0_106_179)">
<circle cx="639.948" cy="659.077" r="247.746" fill="#76716C"/>
<circle cx="658.263" cy="639.746" r="247.746" fill="#8F8982"/>
<circle cx="658.771" cy="640.255" r="193.313" fill="#CCF6FF" fill-opacity="0.5"/>
<ellipse cx="741.503" cy="549.005" rx="57.0744" ry="98.7752" transform="rotate(-45 741.503 549.005)" fill="white" fill-opacity="0.9"/>
<ellipse cx="822.063" cy="476.948" rx="10.6628" ry="26.0173" transform="rotate(-45 822.063 476.948)" fill="white"/>
<path d="M451.302 803.045L502.883 854.626L401.751 955.758C391.988 965.521 376.159 965.521 366.396 955.758L350.17 939.532C340.407 929.769 340.407 913.94 350.17 904.177L451.302 803.045Z" fill="#8F8982"/>
<rect x="381.067" y="856.417" width="100.726" height="292.005" rx="25" transform="rotate(45 381.067 856.417)" fill="#6B461C"/>
<rect x="208.913" y="1029.4" width="99.9716" height="49.3754" rx="24.6877" transform="rotate(45 208.913 1029.4)" fill="#482D0E"/>
<path d="M1080 1526H0V891.283C70.0176 1123.15 285.29 1292 540 1292C794.71 1292 1009.98 1123.15 1080 891.283V1526ZM651.69 1452.16C649.968 1452.16 648.322 1452.49 646.751 1453.15C645.206 1453.79 643.888 1454.67 642.799 1455.81C641.735 1456.95 641.05 1458.24 640.746 1459.69L641.507 1454.37V1453.15H632.463V1507.57H641.658V1490.62L640.746 1483.48C641.354 1485.7 642.495 1487.69 644.167 1489.44C645.864 1491.19 648.119 1492.06 650.931 1492.06C655.465 1492.06 659.126 1490.3 661.912 1486.78C664.724 1483.24 666.131 1478.16 666.131 1471.54C666.131 1465.64 664.978 1460.94 662.673 1457.45C660.368 1453.92 656.706 1452.16 651.69 1452.16ZM676.676 1445.17L676.145 1453.15H670.824V1461.13H675.764V1478.69C675.764 1483.2 676.511 1486.57 678.006 1488.8C679.526 1491.03 682.427 1492.14 686.708 1492.14C687.544 1492.14 688.596 1492.01 689.862 1491.76C691.154 1491.53 692.421 1491.21 693.662 1490.81C694.929 1490.38 695.955 1489.89 696.74 1489.33L694.916 1481.65C694.207 1482.26 693.231 1482.86 691.99 1483.44C690.749 1484.02 689.571 1484.31 688.456 1484.31C687.367 1484.31 686.505 1483.89 685.872 1483.06C685.264 1482.2 684.96 1480.66 684.96 1478.46V1461.13H694.309V1453.15H684.96V1441.6L676.676 1445.17ZM423.249 1452.24C420.133 1452.24 417.296 1452.68 414.737 1453.57C412.204 1454.43 410.177 1455.38 408.657 1456.42L411.697 1463.72C412.584 1462.73 413.965 1461.9 415.84 1461.25C417.74 1460.56 419.677 1460.22 421.653 1460.22C424.364 1460.22 426.163 1460.84 427.05 1462.08C427.962 1463.32 428.417 1464.88 428.417 1466.76V1468.5C424.085 1468.5 420.539 1468.91 417.777 1469.72C415.016 1470.53 412.875 1471.57 411.355 1472.84C409.835 1474.1 408.771 1475.43 408.163 1476.83C407.58 1478.22 407.289 1479.5 407.289 1480.66C407.289 1482.74 407.657 1484.64 408.392 1486.36C409.152 1488.09 410.292 1489.47 411.812 1490.51C413.357 1491.54 415.295 1492.06 417.625 1492.06C422.438 1492.06 426.163 1489.91 428.798 1485.6L429.481 1491H437.613V1466.15C437.613 1463.34 437.195 1460.89 436.359 1458.81C435.523 1456.71 434.067 1455.09 431.989 1453.95C429.912 1452.81 426.998 1452.24 423.249 1452.24ZM545.611 1452.24C540.038 1452.24 535.681 1453.98 532.54 1457.45C529.399 1460.92 527.828 1465.77 527.828 1472C527.828 1478.18 529.348 1483.02 532.388 1486.52C535.428 1490.01 539.734 1491.76 545.308 1491.76C550.906 1491.76 555.213 1489.97 558.228 1486.4C561.268 1482.81 562.788 1478 562.788 1472C562.788 1466 561.319 1461.21 558.38 1457.64C555.467 1454.04 551.21 1452.24 545.611 1452.24ZM716.02 1452.39C711.434 1452.39 707.887 1453.42 705.379 1455.47C702.896 1457.5 701.655 1460.22 701.655 1463.64C701.655 1465.87 702.161 1467.69 703.175 1469.11C704.213 1470.53 705.455 1471.67 706.899 1472.53C708.343 1473.39 709.711 1474.1 711.003 1474.66C713.182 1475.6 715.095 1476.55 716.741 1477.51C718.388 1478.47 719.211 1479.55 719.211 1480.74C719.211 1481.6 718.844 1482.4 718.109 1483.13C717.4 1483.87 716.146 1484.24 714.348 1484.24C712.043 1484.24 710.015 1483.79 708.268 1482.91C706.545 1482.02 705.125 1481.12 704.011 1480.21L701.199 1487.43C701.579 1487.88 702.25 1488.45 703.213 1489.14C704.201 1489.8 705.569 1490.39 707.317 1490.92C709.091 1491.43 711.358 1491.68 714.119 1491.68C717.615 1491.68 720.428 1491.13 722.556 1490.01C724.683 1488.87 726.229 1487.4 727.191 1485.6C728.154 1483.78 728.635 1481.83 728.635 1479.75C728.635 1476.97 727.66 1474.67 725.709 1472.87C723.784 1471.05 721.238 1469.52 718.071 1468.28C716.171 1467.52 714.537 1466.74 713.169 1465.96C711.826 1465.15 711.155 1464.12 711.155 1462.88C711.155 1461.77 711.535 1460.95 712.295 1460.45C713.055 1459.94 714.398 1459.69 716.323 1459.69C718.071 1459.69 719.706 1460.03 721.226 1460.71C722.745 1461.4 723.999 1462.12 724.987 1462.88L727.571 1456.04C726.887 1455.36 725.519 1454.58 723.467 1453.72C721.44 1452.84 718.958 1452.39 716.02 1452.39ZM348.207 1453.15L363.56 1491H370.323L384.915 1453.15H374.883L368.575 1472.08L367.055 1478.31L365.383 1472.08L358.847 1453.15H348.207ZM389.84 1453.15V1491H399.72V1453.15H389.84ZM462.085 1438.03V1491H471.89V1476.79H476.602C481.085 1476.79 484.733 1475.83 487.545 1473.9C490.382 1471.98 492.46 1469.48 493.777 1466.41C495.095 1463.32 495.753 1460.04 495.753 1456.57C495.753 1451.78 494.88 1448.05 493.132 1445.36C491.384 1442.65 489.04 1440.75 486.102 1439.66C483.163 1438.57 479.895 1438.03 476.298 1438.03H462.085ZM522.266 1452.7C519.884 1452.7 517.933 1453.09 516.413 1453.87C514.919 1454.63 513.741 1455.57 512.88 1456.69C512.044 1457.8 511.423 1458.85 511.018 1459.84L510.562 1453.15H501.974V1491H511.474V1468.2C511.474 1467.67 511.765 1466.91 512.348 1465.92C512.956 1464.93 513.88 1464.05 515.121 1463.26C516.362 1462.45 517.959 1462.04 519.909 1462.04C521.581 1462.04 522.823 1462.45 523.634 1463.26L525.762 1453.3C525.28 1453.1 524.76 1452.95 524.203 1452.85C523.646 1452.75 523 1452.7 522.266 1452.7ZM612.441 1452.24C609.199 1452.24 606.666 1452.94 604.842 1454.33C603.043 1455.7 601.663 1457.18 600.7 1458.78C599.839 1456.7 598.559 1455.09 596.862 1453.95C595.165 1452.81 593.036 1452.24 590.478 1452.24C587.539 1452.24 585.183 1452.85 583.41 1454.06C581.662 1455.28 580.294 1456.65 579.306 1458.17L579.078 1453.15H570.338V1491H580.065V1466.98C580.065 1464.88 580.725 1463.16 582.042 1461.82C583.359 1460.45 584.93 1459.76 586.754 1459.76C588.553 1459.76 589.908 1460.45 590.82 1461.82C591.757 1463.16 592.226 1464.88 592.226 1466.98V1491H601.954V1466.98C601.954 1464.88 602.676 1463.18 604.12 1461.89C605.564 1460.57 607.173 1459.92 608.946 1459.92C610.77 1459.92 612.087 1460.57 612.897 1461.89C613.708 1463.18 614.114 1464.88 614.114 1466.98V1491H623.766V1466C623.766 1461.69 622.829 1458.32 620.954 1455.89C619.079 1453.46 616.241 1452.24 612.441 1452.24ZM427.581 1474.36C427.885 1474.36 428.164 1474.38 428.417 1474.43V1479.83C427.657 1481.27 426.619 1482.46 425.302 1483.4C424.01 1484.31 422.793 1484.77 421.653 1484.77C419.981 1484.77 418.74 1484.39 417.93 1483.63C417.119 1482.87 416.713 1481.58 416.713 1479.75C416.713 1478.36 417.246 1477.27 418.31 1476.48C419.374 1475.7 420.666 1475.15 422.186 1474.85C423.731 1474.52 425.2 1474.36 426.594 1474.36H427.581ZM648.879 1459.92C650.829 1459.92 652.527 1460.85 653.971 1462.73C655.44 1464.6 656.175 1467.67 656.175 1471.92C656.175 1474.99 655.807 1477.45 655.072 1479.3C654.338 1481.15 653.401 1482.49 652.261 1483.32C651.121 1484.13 649.943 1484.54 648.727 1484.54C646.523 1484.54 644.787 1483.44 643.521 1481.23C642.279 1479.01 641.658 1476.1 641.658 1472.53C641.658 1468.96 642.267 1465.97 643.482 1463.56C644.724 1461.13 646.523 1459.92 648.879 1459.92ZM545.46 1459.76C550.273 1459.76 552.68 1463.84 552.68 1472C552.68 1480.11 550.273 1484.16 545.46 1484.16C543.079 1484.16 541.229 1483.22 539.912 1481.35C538.595 1479.47 537.936 1476.36 537.936 1472C537.936 1467.62 538.595 1464.49 539.912 1462.61C541.229 1460.71 543.079 1459.76 545.46 1459.76ZM475.689 1445.7C479.489 1445.7 482.149 1446.64 483.669 1448.52C485.189 1450.36 485.949 1453.23 485.949 1457.1C485.949 1460.9 485.113 1463.8 483.441 1465.81C481.769 1467.81 479.261 1468.81 475.917 1468.81H471.89V1445.7H475.689ZM389.46 1436.89V1447H400.1V1436.89H389.46ZM70.625 1340.12C66.0397 1340.12 61.9734 1341.27 58.4268 1343.57C54.9056 1345.88 52.1448 1349.06 50.1436 1353.11C48.1423 1357.14 47.1407 1361.78 47.1406 1367.02C47.1406 1373 48.053 1378.1 49.877 1382.33C51.7263 1386.56 54.3102 1389.8 57.6289 1392.02C60.9475 1394.25 64.8491 1395.37 69.333 1395.37C73.5129 1395.37 76.9201 1394.75 79.5547 1393.51C82.2146 1392.26 84.2797 1390.59 85.749 1388.49C87.2184 1386.36 88.2317 1383.95 88.7891 1381.27C89.3463 1378.58 89.625 1375.81 89.625 1372.95C89.625 1371.88 89.574 1370.68 89.4727 1369.34C89.3967 1368 89.2956 1366.74 89.1689 1365.58H69.333V1373.94H80.2012C80.2518 1374.7 80.2773 1375.38 80.2773 1375.99C80.2773 1379.51 79.4533 1382.21 77.8066 1384.08C76.1853 1385.93 73.4117 1386.86 69.4854 1386.86C65.8374 1386.86 62.8983 1385.1 60.6689 1381.57C58.4396 1378.05 57.3252 1373.13 57.3252 1366.79C57.3252 1363.3 57.9079 1360.22 59.0732 1357.56C60.2639 1354.9 61.8728 1352.82 63.8994 1351.33C65.9261 1349.83 68.2187 1349.08 70.7773 1349.08C73.1838 1349.08 75.1343 1349.32 76.6289 1349.81C78.1234 1350.29 79.2763 1350.86 80.0869 1351.52C80.8975 1352.17 81.493 1352.76 81.873 1353.26L86.0527 1344.83C85.3942 1344.19 84.4952 1343.51 83.3555 1342.78C82.2409 1342.04 80.67 1341.42 78.6436 1340.91C76.6422 1340.38 73.969 1340.12 70.625 1340.12ZM282.982 1348.17L282.451 1356.15H277.131V1364.13H282.07V1381.69C282.07 1386.2 282.818 1389.57 284.312 1391.8C285.832 1394.03 288.733 1395.14 293.015 1395.14C293.851 1395.14 294.902 1395.01 296.169 1394.76C297.461 1394.53 298.727 1394.21 299.969 1393.81C301.235 1393.38 302.262 1392.89 303.047 1392.33L301.223 1384.65C300.513 1385.26 299.538 1385.86 298.297 1386.44C297.056 1387.02 295.877 1387.31 294.763 1387.31C293.673 1387.31 292.812 1386.89 292.179 1386.06C291.571 1385.2 291.267 1383.66 291.267 1381.46V1364.13H300.615V1356.15H291.267V1344.6L282.982 1348.17ZM442.033 1348.17L441.502 1356.15H436.182V1364.13H441.121V1381.69C441.121 1386.2 441.869 1389.57 443.363 1391.8C444.883 1394.03 447.784 1395.14 452.065 1395.14C452.901 1395.14 453.953 1395.01 455.22 1394.76C456.512 1394.53 457.778 1394.21 459.02 1393.81C460.286 1393.38 461.312 1392.89 462.098 1392.33L460.273 1384.65C459.564 1385.26 458.589 1385.86 457.348 1386.44C456.106 1387.02 454.928 1387.31 453.813 1387.31C452.724 1387.31 451.863 1386.89 451.229 1386.06C450.622 1385.2 450.317 1383.66 450.317 1381.46V1364.13H459.666V1356.15H450.317V1344.6L442.033 1348.17ZM256.888 1355.24C253.772 1355.24 250.935 1355.68 248.376 1356.57C245.843 1357.43 243.816 1358.38 242.296 1359.42L245.336 1366.72C246.223 1365.73 247.604 1364.9 249.479 1364.25C251.378 1363.56 253.316 1363.22 255.292 1363.22C258.003 1363.22 259.802 1363.84 260.688 1365.08C261.6 1366.32 262.056 1367.88 262.056 1369.76V1371.5C257.724 1371.5 254.177 1371.91 251.416 1372.72C248.655 1373.53 246.514 1374.57 244.994 1375.84C243.474 1377.1 242.41 1378.43 241.802 1379.83C241.219 1381.22 240.928 1382.5 240.928 1383.66C240.928 1385.74 241.296 1387.64 242.03 1389.36C242.79 1391.09 243.93 1392.47 245.45 1393.51C246.995 1394.54 248.933 1395.06 251.264 1395.06C256.077 1395.06 259.802 1392.91 262.437 1388.6L263.12 1394H271.252V1369.15C271.252 1366.34 270.834 1363.89 269.998 1361.81C269.162 1359.71 267.705 1358.09 265.628 1356.95C263.551 1355.81 260.637 1355.24 256.888 1355.24ZM659.079 1355.24C655.963 1355.24 653.126 1355.68 650.567 1356.57C648.034 1357.43 646.007 1358.38 644.487 1359.42L647.527 1366.72C648.414 1365.73 649.795 1364.9 651.67 1364.25C653.57 1363.56 655.508 1363.22 657.483 1363.22C660.194 1363.22 661.993 1363.84 662.88 1365.08C663.792 1366.32 664.247 1367.88 664.247 1369.76V1371.5C659.915 1371.5 656.369 1371.91 653.607 1372.72C650.846 1373.53 648.706 1374.57 647.186 1375.84C645.666 1377.1 644.601 1378.43 643.993 1379.83C643.411 1381.22 643.119 1382.5 643.119 1383.66C643.119 1385.74 643.487 1387.64 644.222 1389.36C644.982 1391.09 646.122 1392.47 647.642 1393.51C649.187 1394.54 651.125 1395.06 653.455 1395.06C658.268 1395.06 661.993 1392.91 664.628 1388.6L665.312 1394H673.443V1369.15C673.443 1366.34 673.025 1363.89 672.189 1361.81C671.353 1359.71 669.897 1358.09 667.819 1356.95C665.742 1355.81 662.828 1355.24 659.079 1355.24ZM879.083 1340.12V1394H888.432V1370.44L888.052 1363.07L890.407 1366.11L915.791 1395.06H916.552V1341.03H907.203V1365.5L907.583 1372.76L904.924 1369.3L879.919 1340.12H879.083ZM112.95 1355.24C109.15 1355.24 105.933 1356.16 103.298 1358.01C100.689 1359.86 98.7 1362.33 97.332 1365.42C95.9894 1368.49 95.3184 1371.86 95.3184 1375.53C95.3184 1379.03 95.913 1382.26 97.1035 1385.22C98.2942 1388.16 100.194 1390.53 102.804 1392.33C105.413 1394.1 108.846 1394.99 113.102 1394.99C116.826 1394.99 119.777 1394.57 121.956 1393.73C124.16 1392.87 125.769 1392.1 126.782 1391.42L123.742 1384.2C122.881 1385.18 121.551 1386.03 119.752 1386.74C117.953 1387.43 116.269 1387.77 114.698 1387.77C111.633 1387.77 109.328 1386.92 107.782 1385.22C106.262 1383.52 105.426 1381.18 105.274 1378.19H128.074C128.125 1377.61 128.162 1376.91 128.188 1376.1C128.213 1375.29 128.226 1374.62 128.226 1374.09C128.226 1368.08 127.098 1363.45 124.844 1360.18C122.589 1356.89 118.625 1355.24 112.95 1355.24ZM192.364 1355.24C188.564 1355.24 185.347 1356.16 182.712 1358.01C180.103 1359.86 178.114 1362.33 176.746 1365.42C175.403 1368.49 174.732 1371.86 174.732 1375.53C174.732 1379.03 175.327 1382.26 176.518 1385.22C177.708 1388.16 179.609 1390.53 182.218 1392.33C184.827 1394.1 188.26 1394.99 192.516 1394.99C196.24 1394.99 199.191 1394.57 201.37 1393.73C203.574 1392.87 205.183 1392.1 206.196 1391.42L203.156 1384.2C202.295 1385.18 200.965 1386.03 199.166 1386.74C197.367 1387.43 195.683 1387.77 194.112 1387.77C191.047 1387.77 188.742 1386.92 187.196 1385.22C185.676 1383.52 184.841 1381.18 184.688 1378.19H207.488C207.539 1377.61 207.576 1376.91 207.602 1376.1C207.627 1375.29 207.64 1374.62 207.64 1374.09C207.64 1368.08 206.512 1363.45 204.258 1360.18C202.003 1356.89 198.039 1355.24 192.364 1355.24ZM324.177 1355.24C320.377 1355.24 317.159 1356.16 314.524 1358.01C311.915 1359.86 309.927 1362.33 308.559 1365.42C307.216 1368.49 306.545 1371.86 306.545 1375.53C306.545 1379.03 307.14 1382.26 308.33 1385.22C309.521 1388.16 311.421 1390.53 314.03 1392.33C316.64 1394.1 320.072 1394.99 324.328 1394.99C328.052 1394.99 331.004 1394.57 333.183 1393.73C335.387 1392.87 336.995 1392.1 338.009 1391.42L334.969 1384.2C334.107 1385.18 332.777 1386.03 330.979 1386.74C329.18 1387.43 327.495 1387.77 325.925 1387.77C322.859 1387.77 320.554 1386.92 319.009 1385.22C317.489 1383.52 316.653 1381.18 316.501 1378.19H339.301C339.351 1377.61 339.389 1376.91 339.414 1376.1C339.439 1375.29 339.452 1374.62 339.452 1374.09C339.452 1368.08 338.325 1363.45 336.07 1360.18C333.816 1356.89 329.851 1355.24 324.177 1355.24ZM420.74 1355.24C416.839 1355.24 413.571 1356.18 410.937 1358.05C408.302 1359.93 406.313 1362.38 404.971 1365.42C403.628 1368.46 402.956 1371.73 402.956 1375.23C402.956 1378.75 403.552 1382 404.742 1384.99C405.958 1387.98 407.833 1390.39 410.366 1392.21C412.899 1394.01 416.18 1394.91 420.208 1394.91C423.299 1394.91 425.884 1394.39 427.961 1393.35C430.038 1392.31 431.431 1391.42 432.141 1390.66L429.253 1383.89C428.544 1384.68 427.492 1385.42 426.099 1386.13C424.705 1386.82 423.096 1387.16 421.272 1387.16C418.511 1387.16 416.433 1386.21 415.04 1384.31C413.672 1382.41 412.988 1379.36 412.988 1375.15C412.988 1367.15 415.75 1363.14 421.272 1363.14C422.564 1363.14 423.933 1363.46 425.377 1364.09C426.846 1364.7 427.961 1365.58 428.721 1366.72L431.837 1358.66C430.165 1357.29 428.442 1356.38 426.669 1355.92C424.896 1355.47 422.919 1355.24 420.74 1355.24ZM988.759 1340.12C984.655 1340.12 980.905 1341.14 977.511 1343.19C974.141 1345.22 971.444 1348.22 969.417 1352.2C967.416 1356.15 966.414 1361.02 966.414 1366.79C966.414 1371.61 967.01 1375.79 968.2 1379.33C969.391 1382.88 971 1385.81 973.026 1388.11C975.078 1390.39 977.384 1392.1 979.942 1393.24C982.501 1394.35 985.162 1394.91 987.923 1394.91C990.76 1394.91 993.116 1394.66 994.99 1394.15C996.89 1393.65 998.424 1393.05 999.589 1392.37C1000.78 1391.66 1001.73 1391.01 1002.44 1390.43L998.259 1382.9C997.423 1383.77 996.156 1384.54 994.459 1385.22C992.762 1385.91 990.709 1386.25 988.303 1386.25C985.187 1386.25 982.513 1384.58 980.284 1381.23C978.08 1377.86 976.979 1372.87 976.979 1366.26C976.979 1362.89 977.447 1359.9 978.385 1357.29C979.347 1354.66 980.728 1352.59 982.526 1351.1C984.35 1349.6 986.555 1348.86 989.139 1348.86C991.697 1348.86 993.559 1349.22 994.725 1349.96C995.89 1350.67 997.017 1351.62 998.106 1352.81L1002.36 1344.83C1001.7 1344.22 1000.84 1343.55 999.778 1342.81C998.74 1342.08 997.334 1341.45 995.561 1340.91C993.813 1340.38 991.545 1340.12 988.759 1340.12ZM503.938 1355.24C498.364 1355.24 494.007 1356.98 490.866 1360.45C487.725 1363.92 486.154 1368.77 486.154 1375C486.154 1381.18 487.674 1386.02 490.714 1389.52C493.754 1393.01 498.061 1394.76 503.634 1394.76C509.232 1394.76 513.539 1392.97 516.554 1389.4C519.594 1385.81 521.114 1381 521.114 1375C521.114 1369 519.645 1364.21 516.706 1360.64C513.793 1357.04 509.536 1355.24 503.938 1355.24ZM810.758 1355.24C805.185 1355.24 800.828 1356.98 797.687 1360.45C794.545 1363.92 792.975 1368.77 792.975 1375C792.975 1381.18 794.494 1386.02 797.534 1389.52C800.574 1393.01 804.881 1394.76 810.454 1394.76C816.053 1394.76 820.359 1392.97 823.374 1389.4C826.414 1385.81 827.935 1381 827.935 1375C827.935 1369 826.465 1364.21 823.526 1360.64C820.613 1357.04 816.356 1355.24 810.758 1355.24ZM735.799 1355.39C731.213 1355.39 727.666 1356.42 725.158 1358.47C722.676 1360.5 721.435 1363.22 721.435 1366.64C721.435 1368.87 721.941 1370.69 722.954 1372.11C723.993 1373.53 725.235 1374.67 726.679 1375.53C728.123 1376.39 729.49 1377.1 730.782 1377.66C732.961 1378.6 734.874 1379.55 736.521 1380.51C738.167 1381.47 738.99 1382.55 738.99 1383.74C738.99 1384.6 738.623 1385.4 737.889 1386.13C737.179 1386.87 735.925 1387.24 734.127 1387.24C731.822 1387.24 729.795 1386.79 728.047 1385.91C726.324 1385.02 724.905 1384.12 723.79 1383.21L720.979 1390.43C721.358 1390.88 722.03 1391.45 722.992 1392.14C723.98 1392.8 725.349 1393.39 727.097 1393.92C728.87 1394.43 731.137 1394.68 733.898 1394.68C737.394 1394.68 740.207 1394.13 742.335 1393.01C744.463 1391.87 746.008 1390.4 746.971 1388.6C747.933 1386.78 748.414 1384.83 748.414 1382.75C748.414 1379.97 747.439 1377.67 745.488 1375.87C743.563 1374.05 741.017 1372.52 737.851 1371.28C735.951 1370.52 734.316 1369.74 732.948 1368.96C731.606 1368.15 730.935 1367.12 730.935 1365.88C730.935 1364.77 731.314 1363.95 732.074 1363.45C732.834 1362.94 734.177 1362.69 736.103 1362.69C737.851 1362.69 739.485 1363.03 741.005 1363.71C742.525 1364.4 743.779 1365.12 744.767 1365.88L747.351 1359.04C746.667 1358.36 745.298 1357.58 743.246 1356.72C741.22 1355.84 738.737 1355.39 735.799 1355.39ZM1020.35 1355.39C1015.77 1355.39 1012.22 1356.42 1009.71 1358.47C1007.23 1360.5 1005.99 1363.22 1005.99 1366.64C1005.99 1368.87 1006.5 1370.69 1007.51 1372.11C1008.55 1373.53 1009.79 1374.67 1011.23 1375.53C1012.68 1376.39 1014.05 1377.1 1015.34 1377.66C1017.52 1378.6 1019.43 1379.55 1021.08 1380.51C1022.72 1381.47 1023.54 1382.55 1023.54 1383.74C1023.54 1384.6 1023.18 1385.4 1022.44 1386.13C1021.73 1386.87 1020.48 1387.24 1018.68 1387.24C1016.38 1387.24 1014.35 1386.79 1012.6 1385.91C1010.88 1385.02 1009.46 1384.12 1008.34 1383.21L1005.53 1390.43C1005.91 1390.88 1006.58 1391.45 1007.55 1392.14C1008.53 1392.8 1009.9 1393.39 1011.65 1393.92C1013.42 1394.43 1015.69 1394.68 1018.45 1394.68C1021.95 1394.68 1024.76 1394.13 1026.89 1393.01C1029.02 1391.87 1030.56 1390.4 1031.53 1388.6C1032.49 1386.78 1032.97 1384.83 1032.97 1382.75C1032.97 1379.97 1031.99 1377.67 1030.04 1375.87C1028.12 1374.05 1025.57 1372.52 1022.41 1371.28C1020.51 1370.52 1018.87 1369.74 1017.5 1368.96C1016.16 1368.15 1015.49 1367.12 1015.49 1365.88C1015.49 1364.77 1015.87 1363.95 1016.63 1363.45C1017.39 1362.94 1018.73 1362.69 1020.66 1362.69C1022.41 1362.69 1024.04 1363.03 1025.56 1363.71C1027.08 1364.4 1028.33 1365.12 1029.32 1365.88L1031.91 1359.04C1031.22 1358.36 1029.85 1357.58 1027.8 1356.72C1025.77 1355.84 1023.29 1355.39 1020.35 1355.39ZM155.964 1355.24C153.076 1355.24 150.746 1355.85 148.973 1357.06C147.199 1358.26 145.818 1359.61 144.83 1361.13L144.641 1356.15H135.824V1394H145.552V1369.83C145.552 1367.73 146.224 1366.03 147.566 1364.74C148.909 1363.42 150.467 1362.76 152.24 1362.76C154.064 1362.76 155.42 1363.42 156.307 1364.74C157.193 1366.03 157.636 1367.73 157.636 1369.83V1394H167.364V1369C167.364 1364.69 166.426 1361.32 164.552 1358.89C162.677 1356.46 159.814 1355.24 155.964 1355.24ZM235.521 1355.7C233.14 1355.7 231.189 1356.09 229.669 1356.87C228.175 1357.63 226.997 1358.57 226.136 1359.69C225.3 1360.8 224.679 1361.85 224.273 1362.84L223.817 1356.15H215.229V1394H224.729V1371.2C224.729 1370.67 225.021 1369.91 225.604 1368.92C226.211 1367.93 227.136 1367.05 228.377 1366.26C229.618 1365.45 231.215 1365.04 233.165 1365.04C234.837 1365.04 236.079 1365.45 236.89 1366.26L239.018 1356.3C238.536 1356.1 238.016 1355.95 237.459 1355.85C236.902 1355.75 236.256 1355.7 235.521 1355.7ZM378.363 1340.12L355.943 1394H366.583L369.396 1386.32H388.319L391.283 1394H401.619L379.123 1340.12H378.363ZM468.623 1356.15V1394H478.503V1356.15H468.623ZM548.804 1355.24C545.916 1355.24 543.586 1355.85 541.812 1357.06C540.039 1358.26 538.658 1359.61 537.67 1361.13L537.48 1356.15H528.664V1394H538.392V1369.83C538.392 1367.73 539.064 1366.03 540.406 1364.74C541.749 1363.42 543.307 1362.76 545.08 1362.76C546.904 1362.76 548.26 1363.42 549.146 1364.74C550.033 1366.03 550.476 1367.73 550.476 1369.83V1394H560.204V1369C560.204 1364.69 559.266 1361.32 557.392 1358.89C555.517 1356.46 552.654 1355.24 548.804 1355.24ZM585.399 1341.03V1394H595.204V1379.79H599.916C604.4 1379.79 608.047 1378.83 610.859 1376.9C613.697 1374.98 615.774 1372.48 617.092 1369.41C618.409 1366.32 619.067 1363.04 619.067 1359.57C619.067 1354.78 618.194 1351.05 616.446 1348.36C614.698 1345.65 612.355 1343.75 609.416 1342.66C606.477 1341.57 603.209 1341.03 599.612 1341.03H585.399ZM626.266 1336.24V1394H635.537V1336.24H626.266ZM702.14 1355.24C699.252 1355.24 696.922 1355.85 695.148 1357.06C693.375 1358.26 691.994 1359.61 691.006 1361.13L690.816 1356.15H682V1394H691.728V1369.83C691.728 1367.73 692.4 1366.03 693.742 1364.74C695.085 1363.42 696.643 1362.76 698.416 1362.76C700.24 1362.76 701.596 1363.42 702.482 1364.74C703.369 1366.03 703.812 1367.73 703.812 1369.83V1394H713.54V1369C713.54 1364.69 712.602 1361.32 710.728 1358.89C708.853 1356.46 705.99 1355.24 702.14 1355.24ZM785.347 1335.02C783.877 1335.02 782.345 1335.26 780.749 1335.75C779.178 1336.2 777.709 1337 776.341 1338.14C774.973 1339.28 773.858 1340.84 772.997 1342.81C772.161 1344.79 771.743 1347.29 771.743 1350.3V1356.15H766.651V1364.13H771.743V1394H780.938V1364.13H790.135V1356.15H780.938V1350.07C780.938 1347.69 781.534 1345.96 782.725 1344.87C783.915 1343.75 785.398 1343.19 787.171 1343.19C787.982 1343.19 788.919 1343.37 789.983 1343.73C791.047 1344.05 791.858 1344.59 792.415 1345.32V1336.7C791.807 1336.34 790.997 1335.97 789.983 1335.59C788.995 1335.21 787.449 1335.02 785.347 1335.02ZM855.693 1355.7C853.312 1355.7 851.361 1356.09 849.841 1356.87C848.347 1357.63 847.169 1358.57 846.308 1359.69C845.472 1360.8 844.851 1361.85 844.445 1362.84L843.989 1356.15H835.401V1394H844.901V1371.2C844.901 1370.67 845.193 1369.91 845.775 1368.92C846.383 1367.93 847.308 1367.05 848.549 1366.26C849.79 1365.45 851.386 1365.04 853.337 1365.04C855.009 1365.04 856.251 1365.45 857.062 1366.26L859.189 1356.3C858.708 1356.1 858.188 1355.95 857.631 1355.85C857.074 1355.75 856.428 1355.7 855.693 1355.7ZM927.399 1341.03V1394H937.204V1379.79H941.916C946.4 1379.79 950.047 1378.83 952.859 1376.9C955.697 1374.98 957.774 1372.48 959.092 1369.41C960.409 1366.32 961.067 1363.04 961.067 1359.57C961.067 1354.78 960.194 1351.05 958.446 1348.36C956.698 1345.65 954.355 1343.75 951.416 1342.66C948.477 1341.57 945.209 1341.03 941.612 1341.03H927.399ZM261.22 1377.36C261.524 1377.36 261.802 1377.38 262.056 1377.43V1382.83C261.296 1384.27 260.258 1385.46 258.94 1386.4C257.648 1387.31 256.432 1387.77 255.292 1387.77C253.62 1387.77 252.379 1387.39 251.568 1386.63C250.758 1385.87 250.352 1384.58 250.352 1382.75C250.352 1381.36 250.884 1380.27 251.948 1379.48C253.012 1378.7 254.304 1378.15 255.824 1377.85C257.369 1377.52 258.839 1377.36 260.232 1377.36H261.22ZM663.411 1377.36C663.715 1377.36 663.994 1377.38 664.247 1377.43V1382.83C663.487 1384.27 662.449 1385.46 661.132 1386.4C659.84 1387.31 658.623 1387.77 657.483 1387.77C655.812 1387.77 654.57 1387.39 653.76 1386.63C652.949 1385.87 652.543 1384.58 652.543 1382.75C652.543 1381.36 653.076 1380.27 654.14 1379.48C655.204 1378.7 656.496 1378.15 658.016 1377.85C659.561 1377.52 661.031 1377.36 662.424 1377.36H663.411ZM503.786 1362.76C508.599 1362.76 511.006 1366.84 511.006 1375C511.006 1383.11 508.599 1387.16 503.786 1387.16C501.405 1387.16 499.556 1386.22 498.238 1384.35C496.921 1382.47 496.262 1379.36 496.262 1375C496.262 1370.62 496.921 1367.49 498.238 1365.61C499.556 1363.71 501.405 1362.76 503.786 1362.76ZM810.606 1362.76C815.42 1362.76 817.826 1366.84 817.826 1375C817.826 1383.11 815.42 1387.16 810.606 1387.16C808.225 1387.16 806.376 1386.22 805.059 1384.35C803.741 1382.47 803.082 1379.36 803.082 1375C803.082 1370.62 803.741 1367.49 805.059 1365.61C806.376 1363.71 808.225 1362.76 810.606 1362.76ZM379.959 1364.51L385.508 1378.95H372.132L377.451 1364.51L378.667 1360.26L379.959 1364.51ZM113.178 1362.46C114.216 1362.46 115.141 1362.73 115.952 1363.26C116.763 1363.79 117.396 1364.77 117.852 1366.18C118.333 1367.58 118.574 1369.6 118.574 1372.26H105.198C105.35 1369.55 106.072 1367.25 107.364 1365.35C108.656 1363.42 110.594 1362.46 113.178 1362.46ZM192.592 1362.46C193.63 1362.46 194.556 1362.73 195.366 1363.26C196.177 1363.79 196.81 1364.77 197.266 1366.18C197.747 1367.58 197.988 1369.6 197.988 1372.26H184.612C184.764 1369.55 185.486 1367.25 186.778 1365.35C188.07 1363.42 190.008 1362.46 192.592 1362.46ZM324.404 1362.46C325.443 1362.46 326.368 1362.73 327.179 1363.26C327.989 1363.79 328.622 1364.77 329.078 1366.18C329.559 1367.58 329.801 1369.6 329.801 1372.26H316.425C316.577 1369.55 317.299 1367.25 318.591 1365.35C319.883 1363.42 321.821 1362.46 324.404 1362.46ZM599.004 1348.7C602.804 1348.7 605.463 1349.64 606.983 1351.52C608.503 1353.36 609.264 1356.23 609.264 1360.1C609.264 1363.9 608.428 1366.8 606.756 1368.81C605.084 1370.81 602.575 1371.81 599.231 1371.81H595.204V1348.7H599.004ZM941.004 1348.7C944.804 1348.7 947.463 1349.64 948.983 1351.52C950.503 1353.36 951.264 1356.23 951.264 1360.1C951.264 1363.9 950.428 1366.8 948.756 1368.81C947.084 1370.81 944.575 1371.81 941.231 1371.81H937.204V1348.7H941.004ZM468.243 1339.89V1350H478.883V1339.89H468.243ZM1080 564.716C1009.98 332.846 794.71 164 540 164C285.29 164 70.0178 332.846 0 564.716V0H1080V564.716ZM765.839 67.2236V129.496C765.839 133.192 765.093 136.253 763.6 138.68C762.144 141.144 760.239 142.414 757.887 142.488L762.703 151C767.93 150.664 772.037 148.89 775.023 145.68C778.01 142.469 779.578 137.261 779.728 130.056V67.2236H765.839ZM632.409 65.7676C629.871 65.7676 627.444 66.2531 625.13 67.2236C622.853 68.1569 620.911 69.4637 619.306 71.1436C617.738 72.8236 616.729 74.7284 616.281 76.8564L617.401 69.0156V67.2236H604.073V147.416H617.626V122.44L616.281 111.912C617.177 115.197 618.857 118.128 621.321 120.704C623.823 123.28 627.145 124.568 631.289 124.568C637.972 124.568 643.367 121.973 647.474 116.784C651.618 111.558 653.689 104.072 653.689 94.3281C653.689 85.6295 651.991 78.7038 648.594 73.5518C645.196 68.3625 639.801 65.7676 632.409 65.7676ZM906.246 55.4639L905.462 67.2236H897.622V78.9844H904.902V104.856C904.902 111.502 906.003 116.467 908.206 119.752C910.446 123.037 914.721 124.68 921.03 124.68C922.262 124.68 923.811 124.493 925.678 124.12C927.582 123.784 929.449 123.317 931.278 122.72C933.145 122.085 934.657 121.357 935.814 120.536L933.126 109.224C932.081 110.12 930.644 110.998 928.814 111.856C926.985 112.715 925.249 113.143 923.606 113.144C922.001 113.144 920.731 112.528 919.798 111.296C918.902 110.027 918.454 107.767 918.454 104.52V78.9844H932.23V67.2236H918.454V50.2002L906.246 55.4639ZM393.869 65.8799C389.277 65.8799 385.096 66.5333 381.325 67.8398C377.592 69.1091 374.605 70.5095 372.365 72.04L376.845 82.792C378.151 81.336 380.187 80.123 382.949 79.1523C385.749 78.1444 388.605 77.6397 391.517 77.6396C395.511 77.6396 398.162 78.5546 399.469 80.3838C400.813 82.2131 401.484 84.5098 401.484 87.2725V89.8477C395.101 89.8477 389.874 90.445 385.805 91.6396C381.735 92.8343 378.581 94.3658 376.341 96.2324C374.101 98.099 372.533 100.059 371.637 102.112C370.778 104.165 370.349 106.05 370.349 107.768C370.349 110.829 370.89 113.629 371.973 116.168C373.093 118.707 374.773 120.742 377.013 122.272C379.29 123.803 382.146 124.568 385.581 124.568C392.674 124.568 398.162 121.394 402.045 115.048L403.053 123H415.037V86.376C415.037 82.2321 414.42 78.6296 413.188 75.5684C411.957 72.4698 409.81 70.0804 406.749 68.4004C403.688 66.7204 399.394 65.8799 393.869 65.8799ZM234.031 65.8799C228.431 65.8799 223.689 67.2424 219.807 69.9678C215.961 72.6931 213.031 76.3331 211.015 80.8877C209.036 85.405 208.047 90.3708 208.047 95.7842C208.047 100.936 208.924 105.697 210.679 110.064C212.433 114.395 215.234 117.886 219.079 120.536C222.924 123.149 227.983 124.456 234.255 124.456C239.743 124.456 244.092 123.84 247.303 122.608C250.551 121.339 252.922 120.2 254.415 119.192L249.935 108.552C248.665 110.008 246.705 111.258 244.055 112.304C241.404 113.312 238.921 113.816 236.606 113.816C232.09 113.816 228.692 112.565 226.415 110.064C224.175 107.563 222.943 104.109 222.719 99.7041H256.318C256.393 98.8454 256.449 97.8187 256.486 96.624C256.524 95.4295 256.543 94.4402 256.543 93.6562C256.543 84.8083 254.881 77.9762 251.559 73.1602C248.236 68.3069 242.394 65.88 234.031 65.8799ZM340.125 65.8799C334.525 65.8799 329.783 67.2424 325.9 69.9678C322.055 72.6931 319.124 76.3331 317.108 80.8877C315.13 85.405 314.141 90.3708 314.141 95.7842C314.141 100.936 315.018 105.697 316.772 110.064C318.527 114.395 321.328 117.886 325.173 120.536C329.018 123.149 334.077 124.456 340.349 124.456C345.836 124.456 350.186 123.84 353.396 122.608C356.644 121.339 359.015 120.2 360.509 119.192L356.028 108.552C354.759 110.008 352.799 111.258 350.148 112.304C347.498 113.312 345.015 113.816 342.7 113.816C338.183 113.816 334.786 112.565 332.509 110.064C330.269 107.563 329.037 104.109 328.812 99.7041H362.412C362.487 98.8454 362.543 97.8187 362.58 96.624C362.617 95.4295 362.637 94.4402 362.637 93.6562C362.637 84.8083 360.975 77.9762 357.652 73.1602C354.33 68.3069 348.487 65.88 340.125 65.8799ZM817 65.8799C811.4 65.8799 806.658 67.2424 802.775 69.9678C798.93 72.6931 795.999 76.3331 793.983 80.8877C792.005 85.405 791.016 90.3708 791.016 95.7842C791.016 100.936 791.893 105.697 793.647 110.064C795.402 114.395 798.203 117.886 802.048 120.536C805.893 123.149 810.952 124.456 817.224 124.456C822.711 124.456 827.061 123.84 830.271 122.608C833.519 121.339 835.89 120.2 837.384 119.192L832.903 108.552C831.634 110.008 829.674 111.258 827.023 112.304C824.373 113.312 821.89 113.816 819.575 113.816C815.058 113.816 811.661 112.565 809.384 110.064C807.144 107.563 805.912 104.109 805.688 99.7041H839.287C839.362 98.8454 839.418 97.8187 839.455 96.624C839.492 95.4295 839.512 94.4402 839.512 93.6562C839.512 84.8083 837.85 77.9762 834.527 73.1602C831.205 68.3069 825.362 65.88 817 65.8799ZM491.508 65.8799C485.758 65.8799 480.942 67.2617 477.06 70.0244C473.177 72.787 470.246 76.4079 468.268 80.8877C466.289 85.3677 465.3 90.184 465.3 95.3359C465.3 100.525 466.177 105.322 467.932 109.728C469.724 114.133 472.486 117.68 476.22 120.368C479.953 123.019 484.788 124.344 490.724 124.344C495.278 124.344 499.086 123.578 502.147 122.048C505.209 120.517 507.262 119.192 508.308 118.072L504.052 108.104C503.006 109.261 501.457 110.363 499.403 111.408C497.35 112.416 494.979 112.92 492.291 112.92C488.222 112.92 485.161 111.52 483.107 108.72C481.092 105.92 480.083 101.421 480.083 95.2236C480.083 83.4267 484.153 77.5285 492.291 77.5283C494.195 77.5283 496.212 77.9944 498.34 78.9277C500.505 79.8237 502.148 81.1121 503.268 82.792L507.859 70.9199C505.395 68.9039 502.856 67.5597 500.243 66.8877C497.63 66.2158 494.718 65.8799 491.508 65.8799ZM874.867 65.8799C869.118 65.8799 864.302 67.2617 860.419 70.0244C856.536 72.787 853.606 76.4079 851.627 80.8877C849.648 85.3677 848.659 90.184 848.659 95.3359C848.659 100.525 849.536 105.322 851.291 109.728C853.083 114.133 855.846 117.68 859.579 120.368C863.312 123.019 868.147 124.344 874.083 124.344C878.638 124.344 882.446 123.578 885.507 122.048C888.568 120.517 890.622 119.192 891.667 118.072L887.411 108.104C886.366 109.261 884.816 110.363 882.763 111.408C880.709 112.416 878.338 112.92 875.65 112.92C871.581 112.92 868.52 111.52 866.467 108.72C864.451 105.92 863.442 101.421 863.442 95.2236C863.442 83.4267 867.512 77.5285 875.65 77.5283C877.554 77.5283 879.571 77.9944 881.699 78.9277C883.864 79.8237 885.507 81.1121 886.627 82.792L891.219 70.9199C888.755 68.9039 886.216 67.5597 883.603 66.8877C880.989 66.2158 878.078 65.8799 874.867 65.8799ZM729.286 65.8799C721.073 65.8799 714.652 68.4373 710.022 73.5518C705.393 78.6664 703.078 85.816 703.078 95C703.078 104.109 705.318 111.24 709.798 116.392C714.278 121.544 720.625 124.12 728.838 124.12C737.089 124.12 743.435 121.488 747.878 116.224C752.358 110.922 754.598 103.848 754.598 95C754.598 86.152 752.432 79.096 748.102 73.832C743.808 68.5309 737.537 65.8799 729.286 65.8799ZM287.304 66.1035C280.546 66.1035 275.319 67.6156 271.623 70.6396C267.964 73.6263 266.136 77.6399 266.136 82.6797C266.136 85.965 266.882 88.6535 268.375 90.7441C269.906 92.8348 271.735 94.5148 273.863 95.7842C275.991 97.0535 278.007 98.0986 279.911 98.9199C283.122 100.301 285.941 101.701 288.367 103.12C290.794 104.539 292.008 106.125 292.008 107.88C292.008 109.149 291.466 110.326 290.384 111.408C289.339 112.491 287.49 113.032 284.84 113.032C281.443 113.032 278.456 112.379 275.88 111.072C273.341 109.766 271.25 108.44 269.607 107.096L265.464 117.736C266.024 118.408 267.013 119.248 268.432 120.256C269.888 121.226 271.904 122.104 274.479 122.888C277.093 123.634 280.434 124.008 284.503 124.008C289.655 124.008 293.8 123.187 296.936 121.544C300.071 119.864 302.349 117.698 303.768 115.048C305.186 112.36 305.896 109.485 305.896 106.424C305.895 102.317 304.458 98.9387 301.583 96.2881C298.746 93.6002 294.994 91.341 290.327 89.5117C287.527 88.3918 285.119 87.253 283.104 86.0957C281.125 84.901 280.136 83.3889 280.136 81.5596C280.136 79.9171 280.696 78.7222 281.815 77.9756C282.935 77.229 284.914 76.8565 287.751 76.8564C290.327 76.8564 292.736 77.3602 294.976 78.3682C297.215 79.3761 299.064 80.4396 300.52 81.5596L304.327 71.4805C303.319 70.4725 301.303 69.3338 298.279 68.0645C295.293 66.7578 291.634 66.1035 287.304 66.1035ZM150.101 44.9355V123H164.325V94.7764L184.373 123H201.732L181.573 95.8965C186.053 94.7765 189.6 92.7972 192.213 89.96C194.864 87.1227 196.749 83.9121 197.869 80.3281C199.026 76.7068 199.604 73.1971 199.604 69.7998C199.604 63.5652 198.391 58.6369 195.965 55.0156C193.538 51.3944 190.234 48.8187 186.053 47.2881C181.871 45.7201 177.13 44.9356 171.829 44.9355H150.101ZM457.428 66.5518C453.918 66.5518 451.044 67.1308 448.804 68.2881C446.601 69.408 444.865 70.7891 443.596 72.4316C442.364 74.0743 441.449 75.6241 440.852 77.0801L440.18 67.2236H427.523V123H441.523V89.4004C441.523 88.6164 441.953 87.4959 442.812 86.04C443.707 84.5841 445.07 83.2774 446.899 82.1201C448.729 80.9255 451.081 80.3281 453.956 80.3281C456.42 80.3282 458.25 80.9255 459.444 82.1201L462.58 67.4482C461.871 67.1496 461.105 66.9257 460.284 66.7764C459.463 66.627 458.51 66.5518 457.428 66.5518ZM518.876 37.6562V123H532.651V87.6084C532.651 84.5097 533.678 82.0075 535.731 80.1035C537.785 78.1623 540.118 77.1924 542.731 77.1924C545.382 77.1924 547.436 78.1624 548.892 80.1035C550.385 82.0075 551.132 84.5097 551.132 87.6084V123H565.468V86.1523C565.468 79.8057 564.086 74.8399 561.323 71.2559C558.561 67.672 554.379 65.8799 548.779 65.8799C544.337 65.8799 540.772 66.7389 538.084 68.4561C535.396 70.1734 533.305 72.1149 531.812 74.2803L532.092 65.8799V37.6562H518.876ZM694.881 66.5518C691.372 66.5518 688.497 67.1308 686.257 68.2881C684.054 69.408 682.318 70.7891 681.049 72.4316C679.817 74.0743 678.902 75.6241 678.305 77.0801L677.633 67.2236H664.977V123H678.977V89.4004C678.977 88.6164 679.406 87.4959 680.265 86.04C681.161 84.5841 682.523 83.2774 684.353 82.1201C686.182 80.9255 688.535 80.3281 691.409 80.3281C693.873 80.3282 695.703 80.9255 696.897 82.1201L700.033 67.4482C699.324 67.1496 698.559 66.9257 697.737 66.7764C696.916 66.627 695.964 66.5518 694.881 66.5518ZM400.253 98.4717C400.701 98.4717 401.111 98.5094 401.484 98.584V106.536C400.364 108.664 398.834 110.419 396.893 111.8C394.989 113.144 393.197 113.816 391.517 113.816C389.053 113.816 387.223 113.256 386.028 112.136C384.834 111.016 384.236 109.112 384.236 106.424C384.236 104.371 385.021 102.766 386.589 101.608C388.157 100.451 390.061 99.6482 392.301 99.2002C394.578 98.7149 396.744 98.4717 398.797 98.4717H400.253ZM628.266 77.1924C631.14 77.1924 633.642 78.5733 635.77 81.3359C637.935 84.0986 639.018 88.6159 639.018 94.8877C639.018 99.405 638.476 103.027 637.394 105.752C636.311 108.477 634.93 110.456 633.25 111.688C631.57 112.883 629.834 113.48 628.042 113.48C624.794 113.48 622.236 111.856 620.369 108.608C618.54 105.323 617.626 101.048 617.626 95.7842C617.626 90.5203 618.522 86.115 620.313 82.5684C622.143 78.9844 624.794 77.1924 628.266 77.1924ZM729.062 76.9678C736.156 76.968 739.702 82.9789 739.702 95C739.702 106.946 736.156 112.92 729.062 112.92C725.553 112.92 722.827 111.539 720.886 108.776C718.944 106.014 717.974 101.421 717.974 95C717.974 88.5414 718.944 83.9306 720.886 81.168C722.827 78.368 725.553 76.9678 729.062 76.9678ZM234.367 76.5195C235.898 76.5196 237.261 76.9124 238.455 77.6963C239.65 78.4803 240.583 79.9174 241.255 82.0078C241.964 84.0611 242.318 87.0479 242.318 90.9678H222.606C222.83 86.9733 223.895 83.5763 225.799 80.7764C227.703 77.939 230.559 76.5195 234.367 76.5195ZM340.461 76.5195C341.991 76.5196 343.354 76.9124 344.549 77.6963C345.743 78.4803 346.677 79.9174 347.349 82.0078C348.058 84.0611 348.412 87.0479 348.412 90.9678H328.7C328.924 86.9733 329.989 83.5763 331.893 80.7764C333.797 77.939 336.653 76.5195 340.461 76.5195ZM817.336 76.5195C818.866 76.5196 820.229 76.9124 821.424 77.6963C822.618 78.4803 823.552 79.9174 824.224 82.0078C824.933 84.0611 825.287 87.0479 825.287 90.9678H805.575C805.799 86.9733 806.864 83.5763 808.768 80.7764C810.672 77.939 813.528 76.5195 817.336 76.5195ZM169.925 56.1357C175.525 56.1357 179.482 57.3864 181.797 59.8877C184.111 62.3516 185.268 66.1038 185.269 71.1436C185.269 74.0556 184.691 76.7816 183.533 79.3203C182.413 81.8215 180.733 83.8559 178.493 85.4238C176.29 86.9545 173.546 87.7197 170.261 87.7197H164.325V56.1357H169.925ZM765.055 43.2559V58.1523H780.735V43.2559H765.055Z" fill="#6CABD8"/>
</g>
<defs>
<clipPath id="clip0_106_179">
<rect width="1080" height="1526" fill="white"/>
</clipPath>
</defs>
</svg>
