<svg width="1080" height="1526" viewBox="0 0 1080 1526" fill="none" xmlns="http://www.w3.org/2000/svg">
<rect width="1080" height="1526" fill="#C2D8D8"/>
<ellipse cx="409.188" cy="785.668" rx="111.419" ry="108.61" fill="#F96464"/>
<ellipse cx="538.397" cy="819.375" rx="111.419" ry="108.61" fill="#F96464"/>
<circle cx="297.768" cy="693.911" r="112.355" fill="#F96464"/>
<circle cx="408.251" cy="244.489" r="112.355" fill="#F96464"/>
<circle cx="230.355" cy="564.702" r="112.355" fill="#F96464"/>
<circle cx="260.316" cy="437.366" r="112.355" fill="#F96464"/>
<ellipse cx="408.252" cy="531.932" rx="189.131" ry="287.442" fill="#F96464"/>
<circle cx="297.768" cy="325.011" r="112.355" fill="#F96464"/>
<circle cx="537.906" cy="217.162" r="112.355" fill="#F96464"/>
<rect x="342.711" y="212.655" width="307.105" height="617.954" fill="#F96464"/>
<path d="M207.99 343.288C220.117 335.976 233.651 331.385 247.676 329.819C261.7 328.253 275.895 329.748 289.303 334.205C302.71 338.663 315.022 345.98 325.401 355.669C335.782 365.359 343.987 377.196 349.456 390.382" stroke="#DC5858" stroke-width="24" stroke-linecap="round"/>
<path d="M572.019 447.635C587.897 453.243 602.104 462.867 613.279 475.605C624.455 488.343 632.225 503.769 635.838 520.418" stroke="#DC5858" stroke-width="24" stroke-linecap="round"/>
<path d="M450.453 867.46C447.051 849.847 448.387 831.629 454.317 814.728C460.246 797.828 470.542 782.884 484.102 771.453C497.661 760.024 513.985 752.528 531.353 749.731C548.72 746.935 566.512 748.937 582.863 755.535" stroke="#DC5858" stroke-width="24" stroke-linecap="round"/>
<path d="M418.999 684.005C437.335 686.327 454.667 693.813 469.012 705.622C483.359 717.432 494.141 733.093 500.111 750.824" stroke="#DC5858" stroke-width="24" stroke-linecap="round"/>
<path d="M325.038 595.367C322.302 608.106 317.097 620.175 309.723 630.887C302.349 641.598 292.95 650.741 282.066 657.796C271.183 664.851 259.026 669.68 246.291 672.011C233.556 674.342 220.489 674.129 207.835 671.385" stroke="#DC5858" stroke-width="24" stroke-linecap="round"/>
<path d="M591.444 287.08C573.878 295.36 554.285 298.19 535.137 295.219C515.989 292.248 498.127 283.607 483.816 270.37C469.503 257.131 459.384 239.888 454.757 220.814C450.13 201.739 451.207 181.706 457.85 163.253" stroke="#DC5858" stroke-width="24" stroke-linecap="round"/>
<path d="M484.49 282.137C473.231 295.641 458.618 305.851 442.168 311.725C425.72 317.6 408.021 318.93 390.897 315.583" stroke="#DC5858" stroke-width="24" stroke-linecap="round"/>
<path d="M509.63 363.438C520.677 363.438 529.788 372.528 529.788 383.933C529.788 395.337 520.677 404.427 509.63 404.427C498.583 404.427 489.473 395.337 489.473 383.933C489.473 372.528 498.583 363.438 509.63 363.438Z" stroke="black" stroke-width="15"/>
<path d="M351.429 453.047C362.476 453.047 371.587 462.137 371.587 473.542C371.587 484.947 362.476 494.036 351.429 494.036C340.382 494.036 331.272 484.947 331.271 473.542C331.271 462.137 340.382 453.047 351.429 453.047Z" stroke="black" stroke-width="15"/>
<circle cx="581.539" cy="204.374" r="20.1575" stroke="black" stroke-width="15"/>
<path d="M226.417 537.126C237.479 537.126 246.575 546.204 246.575 557.562C246.575 568.921 237.479 578 226.417 578C215.355 578 206.26 568.921 206.26 557.562C206.26 546.205 215.355 537.126 226.417 537.126Z" stroke="black" stroke-width="15"/>
<path d="M564.944 824.764C576.006 824.764 585.102 833.842 585.103 845.2C585.103 856.558 576.006 865.638 564.944 865.638C553.883 865.638 544.787 856.558 544.787 845.2C544.787 833.842 553.883 824.764 564.944 824.764Z" stroke="black" stroke-width="15"/>
<path d="M361.386 717.453C372.447 717.453 381.544 726.532 381.544 737.89C381.544 749.248 372.448 758.327 361.386 758.327C350.324 758.327 341.229 749.248 341.229 737.89C341.229 726.532 350.324 717.453 361.386 717.453Z" stroke="black" stroke-width="15"/>
<path d="M601.453 203.821H737.528" stroke="black" stroke-width="15" stroke-linecap="round"/>
<path d="M530.649 384.701H605.479C612.11 384.701 618.468 382.067 623.157 377.378L672.677 327.857C677.366 323.169 683.725 320.535 690.355 320.535H890.197" stroke="black" stroke-width="15" stroke-linecap="round"/>
<path d="M379.087 473.758H671.304C677.935 473.758 684.294 471.124 688.982 466.436L725.227 430.19C729.916 425.502 736.274 422.868 742.905 422.868H825.08C831.71 422.868 838.069 425.502 842.758 430.19L916.748 504.181" stroke="black" stroke-width="15" stroke-linecap="round"/>
<path d="M253.521 559.496H450.044C456.674 559.496 463.033 562.13 467.722 566.818L536.05 635.146C540.738 639.835 547.097 642.469 553.727 642.469H649.178C655.808 642.469 662.167 639.835 666.856 635.146L729.783 572.219" stroke="black" stroke-width="15" stroke-linecap="round"/>
<path d="M387.938 740.376H703.94C710.571 740.376 716.93 737.743 721.618 733.054L766.16 688.512C770.849 683.823 777.208 681.189 783.838 681.189H830.457" stroke="black" stroke-width="15" stroke-linecap="round"/>
<path d="M589.837 846.58H677.942C684.573 846.58 690.931 843.946 695.62 839.258L716.377 818.501C721.065 813.813 727.424 811.179 734.054 811.179H783.992" stroke="black" stroke-width="15" stroke-linecap="round"/>
<circle cx="890.197" cy="317.217" r="38.7205" fill="#47DAFA"/>
<path d="M791.014 204.928C791.014 227.84 772.44 246.414 749.528 246.414C726.616 246.414 708.042 227.84 708.042 204.928C708.042 182.015 726.616 163.441 749.528 163.441C772.44 163.441 791.014 182.015 791.014 204.928Z" fill="#47DAFA"/>
<circle cx="744.166" cy="558.39" r="33.189" fill="#47DAFA"/>
<circle cx="839.307" cy="683.402" r="27.6575" fill="#47DAFA"/>
<circle cx="916.748" cy="504.181" r="44.252" fill="#47DAFA"/>
<circle cx="795.055" cy="811.732" r="44.252" fill="#47DAFA"/>
<path d="M441.005 1288.78C452.919 1302.31 488.292 1325.23 534.469 1308.68C569.733 1296.04 601.728 1264.03 617.674 1242.41C624.342 1233.37 621.269 1221.39 611.009 1216.82C592.094 1208.38 562.205 1201.42 526.025 1210.91C467.063 1226.38 444.226 1262.2 441.005 1288.78Z" fill="#319641"/>
<path d="M411.87 1320.22L441.005 1288.78M441.005 1288.78C452.919 1302.31 488.292 1325.23 534.469 1308.68C569.733 1296.04 601.728 1264.03 617.674 1242.41C624.342 1233.37 621.269 1221.39 611.009 1216.82C592.094 1208.38 562.205 1201.42 526.025 1210.91C467.063 1226.38 444.226 1262.2 441.005 1288.78Z" stroke="#2C893A" stroke-width="15" stroke-linecap="round"/>
<path d="M448.182 1286.73C493.979 1257.89 572.174 1232.55 618.265 1228.43" stroke="#2A8939" stroke-width="15" stroke-linecap="round"/>
<g filter="url(#filter0_d_29_2)">
<mask id="path-40-outside-1_29_2" maskUnits="userSpaceOnUse" x="89" y="1121" width="901" height="152" fill="black">
<rect fill="white" x="89" y="1121" width="901" height="152"/>
<path d="M90.8494 1270V1124.55H175.224V1136.48H104.131V1191.24H170.75V1203.17H104.131V1258.07H176.645V1270H90.8494ZM379.77 1170H366.418C365.423 1165.03 363.624 1160.44 361.02 1156.22C358.463 1151.96 355.243 1148.24 351.361 1145.07C347.478 1141.9 343.075 1139.44 338.151 1137.68C333.226 1135.93 327.9 1135.06 322.17 1135.06C312.985 1135.06 304.604 1137.45 297.028 1142.23C289.5 1147.01 283.463 1154.04 278.918 1163.32C274.42 1172.56 272.17 1183.87 272.17 1197.27C272.17 1210.77 274.42 1222.13 278.918 1231.36C283.463 1240.6 289.5 1247.6 297.028 1252.39C304.604 1257.12 312.985 1259.49 322.17 1259.49C327.9 1259.49 333.226 1258.61 338.151 1256.86C343.075 1255.11 347.478 1252.67 351.361 1249.55C355.243 1246.37 358.463 1242.66 361.02 1238.39C363.624 1234.13 365.423 1229.52 366.418 1224.55H379.77C378.586 1231.22 376.361 1237.45 373.094 1243.22C369.874 1248.95 365.755 1253.97 360.736 1258.28C355.764 1262.59 350.035 1265.95 343.548 1268.37C337.062 1270.78 329.936 1271.99 322.17 1271.99C309.955 1271.99 299.112 1268.93 289.642 1262.83C280.172 1256.67 272.739 1248.01 267.341 1236.83C261.991 1225.66 259.315 1212.47 259.315 1197.27C259.315 1182.07 261.991 1168.89 267.341 1157.71C272.739 1146.54 280.172 1137.9 289.642 1131.79C299.112 1125.63 309.955 1122.56 322.17 1122.56C329.936 1122.56 337.062 1123.76 343.548 1126.18C350.035 1128.55 355.764 1131.91 360.736 1136.26C365.755 1140.57 369.874 1145.59 373.094 1151.32C376.361 1157.05 378.586 1163.28 379.77 1170ZM586.464 1197.27C586.464 1212.42 583.765 1225.61 578.367 1236.83C572.969 1248.01 565.536 1256.67 556.066 1262.83C546.644 1268.93 535.801 1271.99 523.538 1271.99C511.274 1271.99 500.408 1268.93 490.938 1262.83C481.516 1256.67 474.106 1248.01 468.708 1236.83C463.358 1225.61 460.683 1212.42 460.683 1197.27C460.683 1182.12 463.358 1168.96 468.708 1157.78C474.106 1146.56 481.54 1137.9 491.009 1131.79C500.479 1125.63 511.322 1122.56 523.538 1122.56C535.801 1122.56 546.644 1125.63 556.066 1131.79C565.536 1137.9 572.969 1146.56 578.367 1157.78C583.765 1168.96 586.464 1182.12 586.464 1197.27ZM573.538 1197.27C573.538 1184.25 571.36 1173.1 567.004 1163.82C562.647 1154.49 556.705 1147.37 549.177 1142.44C541.648 1137.52 533.102 1135.06 523.538 1135.06C514.021 1135.06 505.498 1137.52 497.969 1142.44C490.441 1147.37 484.475 1154.47 480.072 1163.75C475.716 1173.03 473.538 1184.2 473.538 1197.27C473.538 1210.29 475.716 1221.44 480.072 1230.72C484.428 1240 490.37 1247.13 497.898 1252.1C505.427 1257.03 513.973 1259.49 523.538 1259.49C533.102 1259.49 541.648 1257.03 549.177 1252.1C556.753 1247.18 562.719 1240.08 567.075 1230.8C571.431 1221.47 573.585 1210.29 573.538 1197.27ZM787.547 1270H773.626L826.538 1124.55H840.743L893.655 1270H879.734L834.138 1141.8H833.143L787.547 1270ZM797.561 1214.25H869.72V1226.18H797.561V1214.25ZM988.115 1124.55V1270H974.834V1124.55H988.115Z"/>
</mask>
<path d="M90.8494 1270V1124.55H175.224V1136.48H104.131V1191.24H170.75V1203.17H104.131V1258.07H176.645V1270H90.8494ZM379.77 1170H366.418C365.423 1165.03 363.624 1160.44 361.02 1156.22C358.463 1151.96 355.243 1148.24 351.361 1145.07C347.478 1141.9 343.075 1139.44 338.151 1137.68C333.226 1135.93 327.9 1135.06 322.17 1135.06C312.985 1135.06 304.604 1137.45 297.028 1142.23C289.5 1147.01 283.463 1154.04 278.918 1163.32C274.42 1172.56 272.17 1183.87 272.17 1197.27C272.17 1210.77 274.42 1222.13 278.918 1231.36C283.463 1240.6 289.5 1247.6 297.028 1252.39C304.604 1257.12 312.985 1259.49 322.17 1259.49C327.9 1259.49 333.226 1258.61 338.151 1256.86C343.075 1255.11 347.478 1252.67 351.361 1249.55C355.243 1246.37 358.463 1242.66 361.02 1238.39C363.624 1234.13 365.423 1229.52 366.418 1224.55H379.77C378.586 1231.22 376.361 1237.45 373.094 1243.22C369.874 1248.95 365.755 1253.97 360.736 1258.28C355.764 1262.59 350.035 1265.95 343.548 1268.37C337.062 1270.78 329.936 1271.99 322.17 1271.99C309.955 1271.99 299.112 1268.93 289.642 1262.83C280.172 1256.67 272.739 1248.01 267.341 1236.83C261.991 1225.66 259.315 1212.47 259.315 1197.27C259.315 1182.07 261.991 1168.89 267.341 1157.71C272.739 1146.54 280.172 1137.9 289.642 1131.79C299.112 1125.63 309.955 1122.56 322.17 1122.56C329.936 1122.56 337.062 1123.76 343.548 1126.18C350.035 1128.55 355.764 1131.91 360.736 1136.26C365.755 1140.57 369.874 1145.59 373.094 1151.32C376.361 1157.05 378.586 1163.28 379.77 1170ZM586.464 1197.27C586.464 1212.42 583.765 1225.61 578.367 1236.83C572.969 1248.01 565.536 1256.67 556.066 1262.83C546.644 1268.93 535.801 1271.99 523.538 1271.99C511.274 1271.99 500.408 1268.93 490.938 1262.83C481.516 1256.67 474.106 1248.01 468.708 1236.83C463.358 1225.61 460.683 1212.42 460.683 1197.27C460.683 1182.12 463.358 1168.96 468.708 1157.78C474.106 1146.56 481.54 1137.9 491.009 1131.79C500.479 1125.63 511.322 1122.56 523.538 1122.56C535.801 1122.56 546.644 1125.63 556.066 1131.79C565.536 1137.9 572.969 1146.56 578.367 1157.78C583.765 1168.96 586.464 1182.12 586.464 1197.27ZM573.538 1197.27C573.538 1184.25 571.36 1173.1 567.004 1163.82C562.647 1154.49 556.705 1147.37 549.177 1142.44C541.648 1137.52 533.102 1135.06 523.538 1135.06C514.021 1135.06 505.498 1137.52 497.969 1142.44C490.441 1147.37 484.475 1154.47 480.072 1163.75C475.716 1173.03 473.538 1184.2 473.538 1197.27C473.538 1210.29 475.716 1221.44 480.072 1230.72C484.428 1240 490.37 1247.13 497.898 1252.1C505.427 1257.03 513.973 1259.49 523.538 1259.49C533.102 1259.49 541.648 1257.03 549.177 1252.1C556.753 1247.18 562.719 1240.08 567.075 1230.8C571.431 1221.47 573.585 1210.29 573.538 1197.27ZM787.547 1270H773.626L826.538 1124.55H840.743L893.655 1270H879.734L834.138 1141.8H833.143L787.547 1270ZM797.561 1214.25H869.72V1226.18H797.561V1214.25ZM988.115 1124.55V1270H974.834V1124.55H988.115Z" fill="white"/>
<path d="M90.8494 1270H89.8494V1271H90.8494V1270ZM90.8494 1124.55V1123.55H89.8494V1124.55H90.8494ZM175.224 1124.55H176.224V1123.55H175.224V1124.55ZM175.224 1136.48V1137.48H176.224V1136.48H175.224ZM104.131 1136.48V1135.48H103.131V1136.48H104.131ZM104.131 1191.24H103.131V1192.24H104.131V1191.24ZM170.75 1191.24H171.75V1190.24H170.75V1191.24ZM170.75 1203.17V1204.17H171.75V1203.17H170.75ZM104.131 1203.17V1202.17H103.131V1203.17H104.131ZM104.131 1258.07H103.131V1259.07H104.131V1258.07ZM176.645 1258.07H177.645V1257.07H176.645V1258.07ZM176.645 1270V1271H177.645V1270H176.645ZM91.8494 1270V1124.55H89.8494V1270H91.8494ZM90.8494 1125.55H175.224V1123.55H90.8494V1125.55ZM174.224 1124.55V1136.48H176.224V1124.55H174.224ZM175.224 1135.48H104.131V1137.48H175.224V1135.48ZM103.131 1136.48V1191.24H105.131V1136.48H103.131ZM104.131 1192.24H170.75V1190.24H104.131V1192.24ZM169.75 1191.24V1203.17H171.75V1191.24H169.75ZM170.75 1202.17H104.131V1204.17H170.75V1202.17ZM103.131 1203.17V1258.07H105.131V1203.17H103.131ZM104.131 1259.07H176.645V1257.07H104.131V1259.07ZM175.645 1258.07V1270H177.645V1258.07H175.645ZM176.645 1269H90.8494V1271H176.645V1269ZM379.77 1170V1171H380.961L380.755 1169.83L379.77 1170ZM366.418 1170L365.437 1170.2L365.598 1171H366.418V1170ZM361.02 1156.22L360.162 1156.74L360.169 1156.75L361.02 1156.22ZM351.361 1145.07L350.728 1145.85L351.361 1145.07ZM338.151 1137.68L338.486 1136.74L338.151 1137.68ZM297.028 1142.23L296.495 1141.38L296.492 1141.39L297.028 1142.23ZM278.918 1163.32L278.02 1162.88L278.019 1162.89L278.918 1163.32ZM278.918 1231.36L278.019 1231.8L278.02 1231.81L278.918 1231.36ZM297.028 1252.39L296.492 1253.23L296.498 1253.23L297.028 1252.39ZM338.151 1256.86L337.815 1255.92L338.151 1256.86ZM351.361 1249.55L351.988 1250.32L351.994 1250.32L351.361 1249.55ZM361.02 1238.39L360.167 1237.87L360.162 1237.88L361.02 1238.39ZM366.418 1224.55V1223.55H365.598L365.437 1224.35L366.418 1224.55ZM379.77 1224.55L380.755 1224.72L380.963 1223.55H379.77V1224.55ZM373.094 1243.22L372.223 1242.73L372.222 1242.73L373.094 1243.22ZM360.736 1258.28L360.084 1257.52L360.081 1257.53L360.736 1258.28ZM343.548 1268.37L343.199 1267.43L343.548 1268.37ZM289.642 1262.83L289.097 1263.67L289.1 1263.67L289.642 1262.83ZM267.341 1236.83L266.439 1237.26L266.44 1237.27L267.341 1236.83ZM267.341 1157.71L266.44 1157.28L266.439 1157.28L267.341 1157.71ZM289.642 1131.79L290.184 1132.63L290.187 1132.63L289.642 1131.79ZM343.548 1126.18L343.199 1127.12L343.205 1127.12L343.548 1126.18ZM360.736 1136.26L360.077 1137.02L360.084 1137.02L360.736 1136.26ZM373.094 1151.32L372.222 1151.81L372.225 1151.82L373.094 1151.32ZM379.77 1169H366.418V1171H379.77V1169ZM367.398 1169.8C366.381 1164.72 364.539 1160.01 361.871 1155.7L360.169 1156.75C362.709 1160.86 364.466 1165.34 365.437 1170.2L367.398 1169.8ZM361.877 1155.71C359.261 1151.35 355.965 1147.54 351.994 1144.3L350.728 1145.85C354.522 1148.95 357.665 1152.57 360.162 1156.74L361.877 1155.71ZM351.994 1144.3C348.018 1141.05 343.513 1138.53 338.486 1136.74L337.815 1138.63C342.636 1140.34 346.938 1142.75 350.728 1145.85L351.994 1144.3ZM338.486 1136.74C333.444 1134.95 328.003 1134.06 322.17 1134.06V1136.06C327.796 1136.06 333.009 1136.92 337.815 1138.63L338.486 1136.74ZM322.17 1134.06C312.801 1134.06 304.234 1136.5 296.495 1141.38L297.562 1143.08C304.974 1138.4 313.169 1136.06 322.17 1136.06V1134.06ZM296.492 1141.39C288.785 1146.28 282.633 1153.46 278.02 1162.88L279.816 1163.76C284.293 1154.62 290.215 1147.74 297.565 1143.07L296.492 1141.39ZM278.019 1162.89C273.437 1172.29 271.17 1183.77 271.17 1197.27H273.17C273.17 1183.98 275.402 1172.82 279.817 1163.76L278.019 1162.89ZM271.17 1197.27C271.17 1210.87 273.437 1222.4 278.019 1231.8L279.817 1230.93C275.402 1221.87 273.17 1210.66 273.17 1197.27H271.17ZM278.02 1231.81C282.634 1241.18 288.786 1248.34 296.492 1253.23L297.565 1251.54C290.214 1246.87 284.292 1240.02 279.815 1230.92L278.02 1231.81ZM296.498 1253.23C304.238 1258.07 312.803 1260.49 322.17 1260.49V1258.49C313.167 1258.49 304.971 1256.17 297.558 1251.54L296.498 1253.23ZM322.17 1260.49C328.003 1260.49 333.444 1259.6 338.486 1257.8L337.815 1255.92C333.009 1257.63 327.796 1258.49 322.17 1258.49V1260.49ZM338.486 1257.8C343.511 1256.02 348.014 1253.52 351.988 1250.32L350.734 1248.77C346.943 1251.82 342.639 1254.2 337.815 1255.92L338.486 1257.8ZM351.994 1250.32C355.965 1247.08 359.261 1243.27 361.877 1238.91L360.162 1237.88C357.665 1242.04 354.522 1245.67 350.728 1248.77L351.994 1250.32ZM361.873 1238.92C364.539 1234.55 366.381 1229.83 367.398 1224.74L365.437 1224.35C364.465 1229.21 362.709 1233.71 360.167 1237.87L361.873 1238.92ZM366.418 1225.55H379.77V1223.55H366.418V1225.55ZM378.785 1224.37C377.621 1230.94 375.433 1237.06 372.223 1242.73L373.964 1243.72C377.288 1237.84 379.551 1231.51 380.755 1224.72L378.785 1224.37ZM372.222 1242.73C369.06 1248.36 365.015 1253.29 360.084 1257.52L361.387 1259.04C366.494 1254.66 370.688 1249.55 373.966 1243.71L372.222 1242.73ZM360.081 1257.53C355.204 1261.75 349.58 1265.05 343.199 1267.43L343.897 1269.3C350.49 1266.85 356.324 1263.43 361.391 1259.04L360.081 1257.53ZM343.199 1267.43C336.837 1269.8 329.831 1270.99 322.17 1270.99V1272.99C330.04 1272.99 337.286 1271.76 343.897 1269.3L343.199 1267.43ZM322.17 1270.99C310.13 1270.99 299.479 1267.98 290.184 1261.99L289.1 1263.67C298.745 1269.89 309.779 1272.99 322.17 1272.99V1270.99ZM290.187 1261.99C280.885 1255.94 273.568 1247.42 268.241 1236.4L266.44 1237.27C271.91 1248.59 279.459 1257.4 289.097 1263.67L290.187 1261.99ZM268.243 1236.4C262.97 1225.39 260.315 1212.36 260.315 1197.27H258.315C258.315 1212.59 261.011 1225.93 266.439 1237.26L268.243 1236.4ZM260.315 1197.27C260.315 1182.19 262.97 1169.16 268.243 1158.14L266.439 1157.28C261.011 1168.62 258.315 1181.96 258.315 1197.27H260.315ZM268.241 1158.15C273.567 1147.12 280.884 1138.63 290.184 1132.63L289.1 1130.95C279.46 1137.17 271.91 1145.96 266.44 1157.28L268.241 1158.15ZM290.187 1132.63C299.481 1126.59 310.132 1123.56 322.17 1123.56V1121.56C309.778 1121.56 298.742 1124.68 289.097 1130.95L290.187 1132.63ZM322.17 1123.56C329.831 1123.56 336.837 1124.75 343.199 1127.12L343.897 1125.24C337.286 1122.78 330.04 1121.56 322.17 1121.56V1123.56ZM343.205 1127.12C349.581 1129.45 355.202 1132.75 360.077 1137.02L361.395 1135.51C356.326 1131.07 350.489 1127.65 343.891 1125.24L343.205 1127.12ZM360.084 1137.02C365.015 1141.26 369.06 1146.18 372.222 1151.81L373.966 1150.83C370.688 1145 366.494 1139.89 361.387 1135.51L360.084 1137.02ZM372.225 1151.82C375.433 1157.44 377.621 1163.56 378.785 1170.17L380.755 1169.83C379.552 1162.99 377.288 1156.66 373.962 1150.83L372.225 1151.82ZM578.367 1236.83L579.268 1237.27L579.268 1237.27L578.367 1236.83ZM556.066 1262.83L556.61 1263.67L556.611 1263.67L556.066 1262.83ZM490.938 1262.83L490.391 1263.66L490.396 1263.67L490.938 1262.83ZM468.708 1236.83L467.805 1237.26L467.808 1237.27L468.708 1236.83ZM468.708 1157.78L467.807 1157.35L467.806 1157.35L468.708 1157.78ZM491.009 1131.79L491.551 1132.63L491.554 1132.63L491.009 1131.79ZM556.066 1131.79L555.519 1132.63L555.524 1132.63L556.066 1131.79ZM578.367 1157.78L577.466 1158.22L577.467 1158.22L578.367 1157.78ZM573.538 1197.27H572.538V1197.28L573.538 1197.27ZM567.004 1163.82L566.097 1164.24L566.098 1164.25L567.004 1163.82ZM549.177 1142.44L548.629 1143.28L549.177 1142.44ZM497.969 1142.44L498.517 1143.28L497.969 1142.44ZM480.072 1163.75L479.168 1163.32L479.167 1163.33L480.072 1163.75ZM480.072 1230.72L479.167 1231.15L480.072 1230.72ZM497.898 1252.1L497.347 1252.94L497.351 1252.94L497.898 1252.1ZM549.177 1252.1L548.632 1251.26L548.629 1251.27L549.177 1252.1ZM567.075 1230.8L567.98 1231.22L567.981 1231.22L567.075 1230.8ZM585.464 1197.27C585.464 1212.31 582.786 1225.34 577.466 1236.4L579.268 1237.27C584.744 1225.88 587.464 1212.54 587.464 1197.27H585.464ZM577.467 1236.4C572.14 1247.42 564.823 1255.94 555.521 1261.99L556.611 1263.67C566.249 1257.4 573.799 1248.59 579.268 1237.27L577.467 1236.4ZM555.522 1261.99C546.277 1267.98 535.626 1270.99 523.538 1270.99V1272.99C535.975 1272.99 547.011 1269.89 556.61 1263.67L555.522 1261.99ZM523.538 1270.99C511.449 1270.99 500.774 1267.98 491.48 1261.99L490.396 1263.67C500.042 1269.89 511.1 1272.99 523.538 1272.99V1270.99ZM491.485 1261.99C482.23 1255.94 474.936 1247.43 469.609 1236.4L467.808 1237.27C473.276 1248.59 480.801 1257.4 490.391 1263.66L491.485 1261.99ZM469.611 1236.4C464.337 1225.34 461.683 1212.31 461.683 1197.27H459.683C459.683 1212.54 462.379 1225.88 467.805 1237.26L469.611 1236.4ZM461.683 1197.27C461.683 1182.24 464.337 1169.23 469.61 1158.22L467.806 1157.35C462.378 1168.69 459.683 1182 459.683 1197.27H461.683ZM469.609 1158.22C474.936 1147.14 482.252 1138.63 491.551 1132.63L490.467 1130.95C480.827 1137.17 473.276 1145.98 467.807 1157.35L469.609 1158.22ZM491.554 1132.63C500.848 1126.59 511.499 1123.56 523.538 1123.56V1121.56C511.145 1121.56 500.109 1124.68 490.464 1130.95L491.554 1132.63ZM523.538 1123.56C535.625 1123.56 546.274 1126.59 555.519 1132.63L556.613 1130.95C547.013 1124.68 535.977 1121.56 523.538 1121.56V1123.56ZM555.524 1132.63C564.823 1138.63 572.14 1147.14 577.466 1158.22L579.268 1157.35C573.799 1145.98 566.249 1137.17 556.608 1130.95L555.524 1132.63ZM577.467 1158.22C582.786 1169.23 585.464 1182.24 585.464 1197.27H587.464C587.464 1182 584.744 1168.69 579.268 1157.35L577.467 1158.22ZM574.538 1197.27C574.538 1184.14 572.342 1172.84 567.909 1163.4L566.098 1164.25C570.378 1173.36 572.538 1184.36 572.538 1197.27H574.538ZM567.91 1163.4C563.486 1153.93 557.43 1146.65 549.724 1141.61L548.629 1143.28C555.981 1148.09 561.809 1155.06 566.097 1164.24L567.91 1163.4ZM549.724 1141.61C542.023 1136.57 533.284 1134.06 523.538 1134.06V1136.06C532.921 1136.06 541.274 1138.47 548.629 1143.28L549.724 1141.61ZM523.538 1134.06C513.838 1134.06 505.123 1136.57 497.422 1141.61L498.517 1143.28C505.873 1138.47 514.203 1136.06 523.538 1136.06V1134.06ZM497.422 1141.61C489.719 1146.64 483.639 1153.9 479.168 1163.32L480.975 1164.18C485.311 1155.04 491.163 1148.09 498.517 1143.28L497.422 1141.61ZM479.167 1163.33C474.733 1172.77 472.538 1184.1 472.538 1197.27H474.538C474.538 1184.31 476.698 1173.29 480.977 1164.17L479.167 1163.33ZM472.538 1197.27C472.538 1210.4 474.734 1221.71 479.167 1231.15L480.977 1230.3C476.698 1221.18 474.538 1210.19 474.538 1197.27H472.538ZM479.167 1231.15C483.59 1240.57 489.645 1247.85 497.347 1252.94L498.449 1251.27C491.095 1246.41 485.266 1239.44 480.977 1230.3L479.167 1231.15ZM497.351 1252.94C505.053 1257.98 513.792 1260.49 523.538 1260.49V1258.49C514.155 1258.49 505.801 1256.08 498.446 1251.27L497.351 1252.94ZM523.538 1260.49C533.284 1260.49 542.023 1257.98 549.724 1252.94L548.629 1251.27C541.274 1256.08 532.921 1258.49 523.538 1258.49V1260.49ZM549.722 1252.94C557.474 1247.9 563.555 1240.65 567.98 1231.22L566.169 1230.37C561.882 1239.51 556.031 1246.45 548.632 1251.26L549.722 1252.94ZM567.981 1231.22C572.413 1221.73 574.585 1210.4 574.538 1197.27L572.538 1197.28C572.585 1210.19 570.448 1221.21 566.169 1230.37L567.981 1231.22ZM787.547 1270V1271H788.253L788.489 1270.34L787.547 1270ZM773.626 1270L772.687 1269.66L772.199 1271H773.626V1270ZM826.538 1124.55V1123.55H825.838L825.599 1124.2L826.538 1124.55ZM840.743 1124.55L841.683 1124.2L841.443 1123.55H840.743V1124.55ZM893.655 1270V1271H895.083L894.595 1269.66L893.655 1270ZM879.734 1270L878.792 1270.34L879.029 1271H879.734V1270ZM834.138 1141.8L835.08 1141.47L834.844 1140.8H834.138V1141.8ZM833.143 1141.8V1140.8H832.438L832.201 1141.47L833.143 1141.8ZM797.561 1214.25V1213.25H796.561V1214.25H797.561ZM869.72 1214.25H870.72V1213.25H869.72V1214.25ZM869.72 1226.18V1227.18H870.72V1226.18H869.72ZM797.561 1226.18H796.561V1227.18H797.561V1226.18ZM787.547 1269H773.626V1271H787.547V1269ZM774.566 1270.34L827.478 1124.89L825.599 1124.2L772.687 1269.66L774.566 1270.34ZM826.538 1125.55H840.743V1123.55H826.538V1125.55ZM839.803 1124.89L892.715 1270.34L894.595 1269.66L841.683 1124.2L839.803 1124.89ZM893.655 1269H879.734V1271H893.655V1269ZM880.677 1269.66L835.08 1141.47L833.196 1142.14L878.792 1270.34L880.677 1269.66ZM834.138 1140.8H833.143V1142.8H834.138V1140.8ZM832.201 1141.47L786.605 1269.66L788.489 1270.34L834.086 1142.14L832.201 1141.47ZM797.561 1215.25H869.72V1213.25H797.561V1215.25ZM868.72 1214.25V1226.18H870.72V1214.25H868.72ZM869.72 1225.18H797.561V1227.18H869.72V1225.18ZM798.561 1226.18V1214.25H796.561V1226.18H798.561ZM988.115 1124.55H989.115V1123.55H988.115V1124.55ZM988.115 1270V1271H989.115V1270H988.115ZM974.834 1270H973.834V1271H974.834V1270ZM974.834 1124.55V1123.55H973.834V1124.55H974.834ZM987.115 1124.55V1270H989.115V1124.55H987.115ZM988.115 1269H974.834V1271H988.115V1269ZM975.834 1270V1124.55H973.834V1270H975.834ZM974.834 1125.55H988.115V1123.55H974.834V1125.55Z" fill="#EEEEEE" mask="url(#path-40-outside-1_29_2)"/>
</g>
<defs>
<filter id="filter0_d_29_2" x="85.8496" y="1121.56" width="907.266" height="159.432" filterUnits="userSpaceOnUse" color-interpolation-filters="sRGB">
<feFlood flood-opacity="0" result="BackgroundImageFix"/>
<feColorMatrix in="SourceAlpha" type="matrix" values="0 0 0 0 0 0 0 0 0 0 0 0 0 0 0 0 0 0 127 0" result="hardAlpha"/>
<feOffset dy="4"/>
<feGaussianBlur stdDeviation="2"/>
<feComposite in2="hardAlpha" operator="out"/>
<feColorMatrix type="matrix" values="0 0 0 0 0 0 0 0 0 0 0 0 0 0 0 0 0 0 0.25 0"/>
<feBlend mode="normal" in2="BackgroundImageFix" result="effect1_dropShadow_29_2"/>
<feBlend mode="normal" in="SourceGraphic" in2="effect1_dropShadow_29_2" result="shape"/>
</filter>
</defs>
</svg>
